<svg width="307" height="194" viewBox="0 0 307 194" fill="none" xmlns="http://www.w3.org/2000/svg">
<g opacity="0.22">
<path d="M99.9796 178.16H99.9648C99.9719 178.173 99.9809 178.185 99.9914 178.195C99.9838 178.185 99.9796 178.173 99.9796 178.16Z" fill="#E0B43D"/>
<path d="M99.9796 178.16H99.9648C99.9719 178.173 99.9809 178.185 99.9914 178.195C99.9838 178.185 99.9796 178.173 99.9796 178.16Z" fill="#F5F5B8"/>
<path d="M99.9796 178.16H99.9648C99.9719 178.173 99.9809 178.185 99.9914 178.195C99.9838 178.185 99.9796 178.173 99.9796 178.16Z" fill="#FFE49D"/>
<path d="M99.9795 178.161H99.9643C99.9715 178.174 99.9808 178.186 99.9917 178.196C99.9838 178.186 99.9795 178.173 99.9795 178.161ZM89.0596 172.95C88.7945 172.825 88.5263 172.697 88.2642 172.566C88.7071 172.86 89.1541 173.148 89.6052 173.429C89.4162 173.272 89.2364 173.113 89.0596 172.95Z" fill="#E0B43D"/>
<path d="M99.9795 178.161H99.9643C99.9715 178.174 99.9808 178.186 99.9917 178.196C99.9838 178.186 99.9795 178.173 99.9795 178.161ZM89.0596 172.95C88.7945 172.825 88.5263 172.697 88.2642 172.566C88.7071 172.86 89.1541 173.148 89.6052 173.429C89.4162 173.272 89.2364 173.113 89.0596 172.95Z" fill="#F5F5B8"/>
<path d="M99.9795 178.161H99.9643C99.9715 178.174 99.9808 178.186 99.9917 178.196C99.9838 178.186 99.9795 178.173 99.9795 178.161ZM89.0596 172.95C88.7945 172.825 88.5263 172.697 88.2642 172.566C88.7071 172.86 89.1541 173.148 89.6052 173.429C89.4162 173.272 89.2364 173.113 89.0596 172.95Z" fill="#FFE49D"/>
<path d="M245.072 114.912C243.698 114.305 242.35 113.644 241.027 112.928C240.272 112.52 239.522 112.091 238.787 111.651C235.726 109.805 232.835 107.666 230.15 105.262C230.004 105.131 229.845 105 229.714 104.866C228.8 104.031 227.911 103.167 227.048 102.272C217.789 92.7004 211.93 80.1 210.441 66.5596C210.286 65.1349 210.185 63.6964 210.136 62.244C210.109 61.6499 210.093 61.0557 210.087 60.4584C210.087 60.4105 210.087 60.3658 210.087 60.3211C210.087 60.0943 210.087 59.8675 210.087 59.6407C210.087 59.1072 210.087 58.5738 210.109 58.0435C210.162 55.7989 210.337 53.5593 210.633 51.3354C210.791 50.128 210.985 48.9312 211.215 47.745C211.882 44.2686 212.844 40.8617 214.089 37.5647C214.495 36.4722 214.937 35.3979 215.415 34.3416C212.436 38.1458 208.773 41.2997 204.635 43.6243C202.783 44.6715 200.845 45.5428 198.844 46.2277C196.62 46.9841 194.329 47.5062 192.005 47.7865L191.347 47.5022C184.561 44.6141 177.307 43.126 169.983 43.1196H169.852C164.315 43.1143 158.807 43.9525 153.501 45.608C148.193 43.9523 142.684 43.114 137.147 43.1196H137.016C132.172 43.1274 127.349 43.7789 122.661 45.0586C120.276 45.7084 117.935 46.5215 115.651 47.4926L114.99 47.7769C112.681 47.4941 110.404 46.9719 108.194 46.2181C106.231 45.5496 104.328 44.702 102.507 43.685C98.3205 41.3517 94.6165 38.173 91.6081 34.332C92.1689 35.5927 92.689 36.879 93.1685 38.1908C94.3032 41.2901 95.1871 44.484 95.8109 47.7386C96.0445 48.9588 96.2477 50.1929 96.4204 51.4408C96.7021 53.6251 96.868 55.824 96.9172 58.0275C96.9172 58.561 96.9385 59.0976 96.9385 59.6247C96.9385 59.8962 96.9385 60.1709 96.9385 60.4424C96.9385 60.5095 96.9385 60.5766 96.9385 60.6437C96.9385 61.1739 96.9172 61.701 96.8928 62.2408C96.8359 63.6932 96.7293 65.1317 96.5728 66.5564C95.9521 72.2197 94.5604 77.7607 92.4401 83.0103C89.5217 90.2212 85.285 96.7637 79.969 102.269C79.1075 103.163 78.2186 104.028 77.3022 104.863C77.159 104.997 76.9975 105.128 76.8664 105.259C74.1816 107.663 71.2902 109.802 68.2293 111.647C67.6197 112.012 67.0102 112.363 66.4006 112.702C64.9499 113.502 63.4627 114.239 61.9388 114.912C61.3781 120.061 61.4467 125.264 62.143 130.395C63.2793 138.741 66.0945 146.738 70.4023 153.857C70.8014 148.876 71.7956 143.968 73.3616 139.246C73.5505 138.687 73.7425 138.128 73.9437 137.579C76.0048 131.93 78.8707 126.641 82.4437 121.892C82.5321 121.77 82.6235 121.652 82.715 121.534C87.3432 115.468 93.049 110.4 99.5169 106.61C105.984 102.815 113.099 100.384 120.458 99.4547C122.396 99.2035 124.345 99.0585 126.297 99.0203C126.66 99.0203 127.022 99.0203 127.388 99.0203C129.972 99.0197 132.553 99.2011 135.114 99.5633C136.187 99.7145 137.251 99.8977 138.308 100.113C139.155 100.281 139.995 100.472 140.828 100.685C141.179 100.774 141.526 100.863 141.874 100.959C143.605 101.432 145.301 101.987 146.963 102.623C147.884 102.975 148.791 103.349 149.685 103.745C150.981 104.324 152.253 104.948 153.501 105.617C154.701 104.978 155.927 104.375 157.176 103.809C158.373 103.272 159.592 102.778 160.833 102.326C162.331 101.781 163.855 101.301 165.405 100.886C166.015 100.72 166.634 100.565 167.264 100.423C167.74 100.311 168.218 100.209 168.696 100.103C169.751 99.8902 170.816 99.7071 171.89 99.5537C174.451 99.1915 177.032 99.0101 179.616 99.0107C179.982 99.0107 180.345 99.0107 180.707 99.0107C182.426 99.0426 184.126 99.1544 185.806 99.3461C193.004 100.154 199.987 102.396 206.381 105.952C213.305 109.803 219.403 115.099 224.299 121.515C224.39 121.633 224.481 121.751 224.57 121.872C228.143 126.622 231.009 131.913 233.07 137.563C233.273 138.112 233.467 138.667 233.652 139.227C235.218 143.949 236.212 148.857 236.611 153.838C241.172 146.301 244.058 137.786 245.053 128.922C245.577 124.259 245.586 119.548 245.078 114.883L245.072 114.912ZM181.875 63.0778C181.372 63.3173 180.872 63.5601 180.378 63.8124C175.542 66.2729 171.061 69.4343 167.066 73.2038C166.81 73.4433 166.557 73.6861 166.304 73.9321C164.166 76.0224 162.183 78.281 160.373 80.6881C160.02 81.1576 159.669 81.6464 159.331 82.1191C159.151 82.3715 158.974 82.6238 158.804 82.8794C158.633 83.1349 158.499 83.3457 158.328 83.5821C157.81 84.3583 157.31 85.1537 156.829 85.9587C156.164 87.0639 155.537 88.1947 154.942 89.3511C154.41 90.386 153.902 91.4391 153.418 92.5103C152.986 91.5349 152.528 90.5766 152.047 89.6354C151.315 88.1915 150.529 86.785 149.688 85.4157C149.365 84.8854 149.033 84.3647 148.698 83.8504L148.451 83.4799C148.146 83.0263 147.841 82.5791 147.536 82.1383C147.232 81.6975 146.884 81.2247 146.549 80.7775C144.779 78.414 142.843 76.1921 140.758 74.1301C140.469 73.8426 140.176 73.5615 139.877 73.2804C135.888 69.5102 131.413 66.3467 126.583 63.8827C126.053 63.6101 125.518 63.3471 124.977 63.0937C124.177 62.7168 123.364 62.359 122.539 62.0204C124.27 62.1397 125.979 62.3367 127.665 62.6114C130.909 63.1438 134.103 63.97 137.211 65.0806C137.552 65.202 137.89 65.3266 138.229 65.4543H138.247C139.92 66.0932 141.535 66.7991 143.123 67.5881C143.67 67.8586 144.211 68.1376 144.748 68.4251C147.82 70.0733 150.744 72.0084 153.485 74.2068C157.908 70.6564 162.803 67.8035 168.014 65.7386C168.266 65.6364 168.522 65.5374 168.782 65.4416C169.111 65.317 169.443 65.1924 169.775 65.0742C172.887 63.9643 176.085 63.1382 179.333 62.605C180.958 62.3388 182.605 62.1461 184.273 62.0268C183.472 62.3526 182.664 62.7072 181.875 63.0778Z" fill="#E0B43D"/>
<path d="M245.072 114.912C243.698 114.305 242.35 113.644 241.027 112.928C240.272 112.52 239.522 112.091 238.787 111.651C235.726 109.805 232.835 107.666 230.15 105.262C230.004 105.131 229.845 105 229.714 104.866C228.8 104.031 227.911 103.167 227.048 102.272C217.789 92.7004 211.93 80.1 210.441 66.5596C210.286 65.1349 210.185 63.6964 210.136 62.244C210.109 61.6499 210.093 61.0557 210.087 60.4584C210.087 60.4105 210.087 60.3658 210.087 60.3211C210.087 60.0943 210.087 59.8675 210.087 59.6407C210.087 59.1072 210.087 58.5738 210.109 58.0435C210.162 55.7989 210.337 53.5593 210.633 51.3354C210.791 50.128 210.985 48.9312 211.215 47.745C211.882 44.2686 212.844 40.8617 214.089 37.5647C214.495 36.4722 214.937 35.3979 215.415 34.3416C212.436 38.1458 208.773 41.2997 204.635 43.6243C202.783 44.6715 200.845 45.5428 198.844 46.2277C196.62 46.9841 194.329 47.5062 192.005 47.7865L191.347 47.5022C184.561 44.6141 177.307 43.126 169.983 43.1196H169.852C164.315 43.1143 158.807 43.9525 153.501 45.608C148.193 43.9523 142.684 43.114 137.147 43.1196H137.016C132.172 43.1274 127.349 43.7789 122.661 45.0586C120.276 45.7084 117.935 46.5215 115.651 47.4926L114.99 47.7769C112.681 47.4941 110.404 46.9719 108.194 46.2181C106.231 45.5496 104.328 44.702 102.507 43.685C98.3205 41.3517 94.6165 38.173 91.6081 34.332C92.1689 35.5927 92.689 36.879 93.1685 38.1908C94.3032 41.2901 95.1871 44.484 95.8109 47.7386C96.0445 48.9588 96.2477 50.1929 96.4204 51.4408C96.7021 53.6251 96.868 55.824 96.9172 58.0275C96.9172 58.561 96.9385 59.0976 96.9385 59.6247C96.9385 59.8962 96.9385 60.1709 96.9385 60.4424C96.9385 60.5095 96.9385 60.5766 96.9385 60.6437C96.9385 61.1739 96.9172 61.701 96.8928 62.2408C96.8359 63.6932 96.7293 65.1317 96.5728 66.5564C95.9521 72.2197 94.5604 77.7607 92.4401 83.0103C89.5217 90.2212 85.285 96.7637 79.969 102.269C79.1075 103.163 78.2186 104.028 77.3022 104.863C77.159 104.997 76.9975 105.128 76.8664 105.259C74.1816 107.663 71.2902 109.802 68.2293 111.647C67.6197 112.012 67.0102 112.363 66.4006 112.702C64.9499 113.502 63.4627 114.239 61.9388 114.912C61.3781 120.061 61.4467 125.264 62.143 130.395C63.2793 138.741 66.0945 146.738 70.4023 153.857C70.8014 148.876 71.7956 143.968 73.3616 139.246C73.5505 138.687 73.7425 138.128 73.9437 137.579C76.0048 131.93 78.8707 126.641 82.4437 121.892C82.5321 121.77 82.6235 121.652 82.715 121.534C87.3432 115.468 93.049 110.4 99.5169 106.61C105.984 102.815 113.099 100.384 120.458 99.4547C122.396 99.2035 124.345 99.0585 126.297 99.0203C126.66 99.0203 127.022 99.0203 127.388 99.0203C129.972 99.0197 132.553 99.2011 135.114 99.5633C136.187 99.7145 137.251 99.8977 138.308 100.113C139.155 100.281 139.995 100.472 140.828 100.685C141.179 100.774 141.526 100.863 141.874 100.959C143.605 101.432 145.301 101.987 146.963 102.623C147.884 102.975 148.791 103.349 149.685 103.745C150.981 104.324 152.253 104.948 153.501 105.617C154.701 104.978 155.927 104.375 157.176 103.809C158.373 103.272 159.592 102.778 160.833 102.326C162.331 101.781 163.855 101.301 165.405 100.886C166.015 100.72 166.634 100.565 167.264 100.423C167.74 100.311 168.218 100.209 168.696 100.103C169.751 99.8902 170.816 99.7071 171.89 99.5537C174.451 99.1915 177.032 99.0101 179.616 99.0107C179.982 99.0107 180.345 99.0107 180.707 99.0107C182.426 99.0426 184.126 99.1544 185.806 99.3461C193.004 100.154 199.987 102.396 206.381 105.952C213.305 109.803 219.403 115.099 224.299 121.515C224.39 121.633 224.481 121.751 224.57 121.872C228.143 126.622 231.009 131.913 233.07 137.563C233.273 138.112 233.467 138.667 233.652 139.227C235.218 143.949 236.212 148.857 236.611 153.838C241.172 146.301 244.058 137.786 245.053 128.922C245.577 124.259 245.586 119.548 245.078 114.883L245.072 114.912ZM181.875 63.0778C181.372 63.3173 180.872 63.5601 180.378 63.8124C175.542 66.2729 171.061 69.4343 167.066 73.2038C166.81 73.4433 166.557 73.6861 166.304 73.9321C164.166 76.0224 162.183 78.281 160.373 80.6881C160.02 81.1576 159.669 81.6464 159.331 82.1191C159.151 82.3715 158.974 82.6238 158.804 82.8794C158.633 83.1349 158.499 83.3457 158.328 83.5821C157.81 84.3583 157.31 85.1537 156.829 85.9587C156.164 87.0639 155.537 88.1947 154.942 89.3511C154.41 90.386 153.902 91.4391 153.418 92.5103C152.986 91.5349 152.528 90.5766 152.047 89.6354C151.315 88.1915 150.529 86.785 149.688 85.4157C149.365 84.8854 149.033 84.3647 148.698 83.8504L148.451 83.4799C148.146 83.0263 147.841 82.5791 147.536 82.1383C147.232 81.6975 146.884 81.2247 146.549 80.7775C144.779 78.414 142.843 76.1921 140.758 74.1301C140.469 73.8426 140.176 73.5615 139.877 73.2804C135.888 69.5102 131.413 66.3467 126.583 63.8827C126.053 63.6101 125.518 63.3471 124.977 63.0937C124.177 62.7168 123.364 62.359 122.539 62.0204C124.27 62.1397 125.979 62.3367 127.665 62.6114C130.909 63.1438 134.103 63.97 137.211 65.0806C137.552 65.202 137.89 65.3266 138.229 65.4543H138.247C139.92 66.0932 141.535 66.7991 143.123 67.5881C143.67 67.8586 144.211 68.1376 144.748 68.4251C147.82 70.0733 150.744 72.0084 153.485 74.2068C157.908 70.6564 162.803 67.8035 168.014 65.7386C168.266 65.6364 168.522 65.5374 168.782 65.4416C169.111 65.317 169.443 65.1924 169.775 65.0742C172.887 63.9643 176.085 63.1382 179.333 62.605C180.958 62.3388 182.605 62.1461 184.273 62.0268C183.472 62.3526 182.664 62.7072 181.875 63.0778Z" fill="#F5F5B8"/>
<path d="M245.072 114.912C243.698 114.305 242.35 113.644 241.027 112.928C240.272 112.52 239.522 112.091 238.787 111.651C235.726 109.805 232.835 107.666 230.15 105.262C230.004 105.131 229.845 105 229.714 104.866C228.8 104.031 227.911 103.167 227.048 102.272C217.789 92.7004 211.93 80.1 210.441 66.5596C210.286 65.1349 210.185 63.6964 210.136 62.244C210.109 61.6499 210.093 61.0557 210.087 60.4584C210.087 60.4105 210.087 60.3658 210.087 60.3211C210.087 60.0943 210.087 59.8675 210.087 59.6407C210.087 59.1072 210.087 58.5738 210.109 58.0435C210.162 55.7989 210.337 53.5593 210.633 51.3354C210.791 50.128 210.985 48.9312 211.215 47.745C211.882 44.2686 212.844 40.8617 214.089 37.5647C214.495 36.4722 214.937 35.3979 215.415 34.3416C212.436 38.1458 208.773 41.2997 204.635 43.6243C202.783 44.6715 200.845 45.5428 198.844 46.2277C196.62 46.9841 194.329 47.5062 192.005 47.7865L191.347 47.5022C184.561 44.6141 177.307 43.126 169.983 43.1196H169.852C164.315 43.1143 158.807 43.9525 153.501 45.608C148.193 43.9523 142.684 43.114 137.147 43.1196H137.016C132.172 43.1274 127.349 43.7789 122.661 45.0586C120.276 45.7084 117.935 46.5215 115.651 47.4926L114.99 47.7769C112.681 47.4941 110.404 46.9719 108.194 46.2181C106.231 45.5496 104.328 44.702 102.507 43.685C98.3205 41.3517 94.6165 38.173 91.6081 34.332C92.1689 35.5927 92.689 36.879 93.1685 38.1908C94.3032 41.2901 95.1871 44.484 95.8109 47.7386C96.0445 48.9588 96.2477 50.1929 96.4204 51.4408C96.7021 53.6251 96.868 55.824 96.9172 58.0275C96.9172 58.561 96.9385 59.0976 96.9385 59.6247C96.9385 59.8962 96.9385 60.1709 96.9385 60.4424C96.9385 60.5095 96.9385 60.5766 96.9385 60.6437C96.9385 61.1739 96.9172 61.701 96.8928 62.2408C96.8359 63.6932 96.7293 65.1317 96.5728 66.5564C95.9521 72.2197 94.5604 77.7607 92.4401 83.0103C89.5217 90.2212 85.285 96.7637 79.969 102.269C79.1075 103.163 78.2186 104.028 77.3022 104.863C77.159 104.997 76.9975 105.128 76.8664 105.259C74.1816 107.663 71.2902 109.802 68.2293 111.647C67.6197 112.012 67.0102 112.363 66.4006 112.702C64.9499 113.502 63.4627 114.239 61.9388 114.912C61.3781 120.061 61.4467 125.264 62.143 130.395C63.2793 138.741 66.0945 146.738 70.4023 153.857C70.8014 148.876 71.7956 143.968 73.3616 139.246C73.5505 138.687 73.7425 138.128 73.9437 137.579C76.0048 131.93 78.8707 126.641 82.4437 121.892C82.5321 121.77 82.6235 121.652 82.715 121.534C87.3432 115.468 93.049 110.4 99.5169 106.61C105.984 102.815 113.099 100.384 120.458 99.4547C122.396 99.2035 124.345 99.0585 126.297 99.0203C126.66 99.0203 127.022 99.0203 127.388 99.0203C129.972 99.0197 132.553 99.2011 135.114 99.5633C136.187 99.7145 137.251 99.8977 138.308 100.113C139.155 100.281 139.995 100.472 140.828 100.685C141.179 100.774 141.526 100.863 141.874 100.959C143.605 101.432 145.301 101.987 146.963 102.623C147.884 102.975 148.791 103.349 149.685 103.745C150.981 104.324 152.253 104.948 153.501 105.617C154.701 104.978 155.927 104.375 157.176 103.809C158.373 103.272 159.592 102.778 160.833 102.326C162.331 101.781 163.855 101.301 165.405 100.886C166.015 100.72 166.634 100.565 167.264 100.423C167.74 100.311 168.218 100.209 168.696 100.103C169.751 99.8902 170.816 99.7071 171.89 99.5537C174.451 99.1915 177.032 99.0101 179.616 99.0107C179.982 99.0107 180.345 99.0107 180.707 99.0107C182.426 99.0426 184.126 99.1544 185.806 99.3461C193.004 100.154 199.987 102.396 206.381 105.952C213.305 109.803 219.403 115.099 224.299 121.515C224.39 121.633 224.481 121.751 224.57 121.872C228.143 126.622 231.009 131.913 233.07 137.563C233.273 138.112 233.467 138.667 233.652 139.227C235.218 143.949 236.212 148.857 236.611 153.838C241.172 146.301 244.058 137.786 245.053 128.922C245.577 124.259 245.586 119.548 245.078 114.883L245.072 114.912ZM181.875 63.0778C181.372 63.3173 180.872 63.5601 180.378 63.8124C175.542 66.2729 171.061 69.4343 167.066 73.2038C166.81 73.4433 166.557 73.6861 166.304 73.9321C164.166 76.0224 162.183 78.281 160.373 80.6881C160.02 81.1576 159.669 81.6464 159.331 82.1191C159.151 82.3715 158.974 82.6238 158.804 82.8794C158.633 83.1349 158.499 83.3457 158.328 83.5821C157.81 84.3583 157.31 85.1537 156.829 85.9587C156.164 87.0639 155.537 88.1947 154.942 89.3511C154.41 90.386 153.902 91.4391 153.418 92.5103C152.986 91.5349 152.528 90.5766 152.047 89.6354C151.315 88.1915 150.529 86.785 149.688 85.4157C149.365 84.8854 149.033 84.3647 148.698 83.8504L148.451 83.4799C148.146 83.0263 147.841 82.5791 147.536 82.1383C147.232 81.6975 146.884 81.2247 146.549 80.7775C144.779 78.414 142.843 76.1921 140.758 74.1301C140.469 73.8426 140.176 73.5615 139.877 73.2804C135.888 69.5102 131.413 66.3467 126.583 63.8827C126.053 63.6101 125.518 63.3471 124.977 63.0937C124.177 62.7168 123.364 62.359 122.539 62.0204C124.27 62.1397 125.979 62.3367 127.665 62.6114C130.909 63.1438 134.103 63.97 137.211 65.0806C137.552 65.202 137.89 65.3266 138.229 65.4543H138.247C139.92 66.0932 141.535 66.7991 143.123 67.5881C143.67 67.8586 144.211 68.1376 144.748 68.4251C147.82 70.0733 150.744 72.0084 153.485 74.2068C157.908 70.6564 162.803 67.8035 168.014 65.7386C168.266 65.6364 168.522 65.5374 168.782 65.4416C169.111 65.317 169.443 65.1924 169.775 65.0742C172.887 63.9643 176.085 63.1382 179.333 62.605C180.958 62.3388 182.605 62.1461 184.273 62.0268C183.472 62.3526 182.664 62.7072 181.875 63.0778Z" fill="#FFE49D"/>
<path d="M188.487 181.78C184.931 185.996 180.827 189.668 176.296 192.688C176.376 192.044 176.416 191.396 176.415 190.746C176.415 190.468 176.415 190.194 176.394 189.922C176.281 187.786 175.728 185.7 174.773 183.809C173.817 181.918 172.482 180.267 170.859 178.969C174.009 180.022 177.241 180.784 180.518 181.246C183.078 181.608 185.659 181.79 188.243 181.789L188.487 181.78Z" fill="#E0B43D"/>
<path d="M188.487 181.78C184.931 185.996 180.827 189.668 176.296 192.688C176.376 192.044 176.416 191.396 176.415 190.746C176.415 190.468 176.415 190.194 176.394 189.922C176.281 187.786 175.728 185.7 174.773 183.809C173.817 181.918 172.482 180.267 170.859 178.969C174.009 180.022 177.241 180.784 180.518 181.246C183.078 181.608 185.659 181.79 188.243 181.789L188.487 181.78Z" fill="#F5F5B8"/>
<path d="M188.487 181.78C184.931 185.996 180.827 189.668 176.296 192.688C176.376 192.044 176.416 191.396 176.415 190.746C176.415 190.468 176.415 190.194 176.394 189.922C176.281 187.786 175.728 185.7 174.773 183.809C173.817 181.918 172.482 180.267 170.859 178.969C174.009 180.022 177.241 180.784 180.518 181.246C183.078 181.608 185.659 181.79 188.243 181.789L188.487 181.78Z" fill="#FFE49D"/>
<path d="M225.375 155.944C225.378 159.3 224.662 162.613 223.28 165.64C221.897 168.667 219.883 171.329 217.387 173.43C216.844 173.768 216.292 174.094 215.741 174.414C214.022 175.403 212.255 176.299 210.447 177.097C210.06 177.269 209.667 177.435 209.274 177.598L208.722 177.825C207.928 178.015 207.124 178.156 206.314 178.247C205.539 178.334 204.76 178.378 203.98 178.378C202.76 178.38 201.543 178.273 200.341 178.058C199.129 177.844 197.938 177.517 196.781 177.081C195.548 176.625 194.357 176.051 193.224 175.366C192.306 174.807 191.43 174.176 190.603 173.478C187.872 171.182 185.716 168.221 184.325 164.853C183.862 163.735 183.488 162.579 183.207 161.397C182.015 156.398 182.497 151.122 184.572 146.451C185.284 146.566 186.003 146.624 186.724 146.623C190.151 146.62 193.46 145.314 196.038 142.948C198.616 140.582 200.288 137.316 200.743 133.756C201.246 133.676 201.755 133.616 202.267 133.571C202.828 133.526 203.392 133.504 203.961 133.504C204.461 133.504 204.958 133.523 205.449 133.558C209.441 133.841 213.275 135.3 216.512 137.765C216.957 138.099 217.389 138.454 217.807 138.829C221.888 142.447 224.526 147.537 225.201 153.095C225.314 154.04 225.372 154.991 225.375 155.944Z" fill="#E0B43D"/>
<path d="M225.375 155.944C225.378 159.3 224.662 162.613 223.28 165.64C221.897 168.667 219.883 171.329 217.387 173.43C216.844 173.768 216.292 174.094 215.741 174.414C214.022 175.403 212.255 176.299 210.447 177.097C210.06 177.269 209.667 177.435 209.274 177.598L208.722 177.825C207.928 178.015 207.124 178.156 206.314 178.247C205.539 178.334 204.76 178.378 203.98 178.378C202.76 178.38 201.543 178.273 200.341 178.058C199.129 177.844 197.938 177.517 196.781 177.081C195.548 176.625 194.357 176.051 193.224 175.366C192.306 174.807 191.43 174.176 190.603 173.478C187.872 171.182 185.716 168.221 184.325 164.853C183.862 163.735 183.488 162.579 183.207 161.397C182.015 156.398 182.497 151.122 184.572 146.451C185.284 146.566 186.003 146.624 186.724 146.623C190.151 146.62 193.46 145.314 196.038 142.948C198.616 140.582 200.288 137.316 200.743 133.756C201.246 133.676 201.755 133.616 202.267 133.571C202.828 133.526 203.392 133.504 203.961 133.504C204.461 133.504 204.958 133.523 205.449 133.558C209.441 133.841 213.275 135.3 216.512 137.765C216.957 138.099 217.389 138.454 217.807 138.829C221.888 142.447 224.526 147.537 225.201 153.095C225.314 154.04 225.372 154.991 225.375 155.944Z" fill="#F5F5B8"/>
<path d="M225.375 155.944C225.378 159.3 224.662 162.613 223.28 165.64C221.897 168.667 219.883 171.329 217.387 173.43C216.844 173.768 216.292 174.094 215.741 174.414C214.022 175.403 212.255 176.299 210.447 177.097C210.06 177.269 209.667 177.435 209.274 177.598L208.722 177.825C207.928 178.015 207.124 178.156 206.314 178.247C205.539 178.334 204.76 178.378 203.98 178.378C202.76 178.38 201.543 178.273 200.341 178.058C199.129 177.844 197.938 177.517 196.781 177.081C195.548 176.625 194.357 176.051 193.224 175.366C192.306 174.807 191.43 174.176 190.603 173.478C187.872 171.182 185.716 168.221 184.325 164.853C183.862 163.735 183.488 162.579 183.207 161.397C182.015 156.398 182.497 151.122 184.572 146.451C185.284 146.566 186.003 146.624 186.724 146.623C190.151 146.62 193.46 145.314 196.038 142.948C198.616 140.582 200.288 137.316 200.743 133.756C201.246 133.676 201.755 133.616 202.267 133.571C202.828 133.526 203.392 133.504 203.961 133.504C204.461 133.504 204.958 133.523 205.449 133.558C209.441 133.841 213.275 135.3 216.512 137.765C216.957 138.099 217.389 138.454 217.807 138.829C221.888 142.447 224.526 147.537 225.201 153.095C225.314 154.04 225.372 154.991 225.375 155.944Z" fill="#FFE49D"/>
<path d="M306.998 102.777C296.348 113.579 282.104 119.611 267.284 119.596C265.675 119.596 264.082 119.526 262.505 119.388C256.51 118.871 250.631 117.362 245.087 114.916C243.714 114.309 242.366 113.648 241.043 112.932C240.287 112.523 239.538 112.095 238.803 111.654C235.742 109.809 232.851 107.67 230.166 105.266C230.02 105.135 229.861 105.004 229.73 104.87C228.816 104.035 227.927 103.17 227.063 102.276C217.805 92.7042 211.946 80.1038 210.457 66.5633C210.302 65.1387 210.201 63.7002 210.152 62.2478C210.124 61.6537 210.109 61.0595 210.103 60.4622C210.103 60.4143 210.103 60.3695 210.103 60.3248C210.103 60.098 210.103 59.8712 210.103 59.6444C210.103 59.111 210.103 58.5775 210.124 58.0473C210.178 55.8027 210.353 53.5631 210.649 51.3392C210.807 50.1317 211.001 48.9349 211.231 47.7488C211.898 44.2724 212.859 40.8654 214.105 37.5685C214.511 36.476 214.953 35.4016 215.43 34.3454C216.453 32.0436 217.617 29.8136 218.914 27.6692C219.584 26.5512 220.29 25.4609 221.032 24.3983C225.75 17.5932 231.78 11.9043 238.732 7.7009C245.684 3.49755 253.401 0.873785 261.384 0C250.638 10.8419 244.376 25.6668 243.942 41.293C243.942 41.6636 243.923 42.0373 243.92 42.411C243.92 42.6506 243.92 42.8934 243.92 43.133C243.912 51.008 245.386 58.8073 248.257 66.0847C251.128 73.362 255.341 79.9744 260.653 85.5435C265.965 91.1126 272.273 95.529 279.216 98.5399C286.159 101.551 293.6 103.097 301.113 103.09C303.079 103.091 305.043 102.987 306.998 102.777Z" fill="#E0B43D"/>
<path d="M306.998 102.777C296.348 113.579 282.104 119.611 267.284 119.596C265.675 119.596 264.082 119.526 262.505 119.388C256.51 118.871 250.631 117.362 245.087 114.916C243.714 114.309 242.366 113.648 241.043 112.932C240.287 112.523 239.538 112.095 238.803 111.654C235.742 109.809 232.851 107.67 230.166 105.266C230.02 105.135 229.861 105.004 229.73 104.87C228.816 104.035 227.927 103.17 227.063 102.276C217.805 92.7042 211.946 80.1038 210.457 66.5633C210.302 65.1387 210.201 63.7002 210.152 62.2478C210.124 61.6537 210.109 61.0595 210.103 60.4622C210.103 60.4143 210.103 60.3695 210.103 60.3248C210.103 60.098 210.103 59.8712 210.103 59.6444C210.103 59.111 210.103 58.5775 210.124 58.0473C210.178 55.8027 210.353 53.5631 210.649 51.3392C210.807 50.1317 211.001 48.9349 211.231 47.7488C211.898 44.2724 212.859 40.8654 214.105 37.5685C214.511 36.476 214.953 35.4016 215.43 34.3454C216.453 32.0436 217.617 29.8136 218.914 27.6692C219.584 26.5512 220.29 25.4609 221.032 24.3983C225.75 17.5932 231.78 11.9043 238.732 7.7009C245.684 3.49755 253.401 0.873785 261.384 0C250.638 10.8419 244.376 25.6668 243.942 41.293C243.942 41.6636 243.923 42.0373 243.92 42.411C243.92 42.6506 243.92 42.8934 243.92 43.133C243.912 51.008 245.386 58.8073 248.257 66.0847C251.128 73.362 255.341 79.9744 260.653 85.5435C265.965 91.1126 272.273 95.529 279.216 98.5399C286.159 101.551 293.6 103.097 301.113 103.09C303.079 103.091 305.043 102.987 306.998 102.777Z" fill="#F5F5B8"/>
<path d="M306.998 102.777C296.348 113.579 282.104 119.611 267.284 119.596C265.675 119.596 264.082 119.526 262.505 119.388C256.51 118.871 250.631 117.362 245.087 114.916C243.714 114.309 242.366 113.648 241.043 112.932C240.287 112.523 239.538 112.095 238.803 111.654C235.742 109.809 232.851 107.67 230.166 105.266C230.02 105.135 229.861 105.004 229.73 104.87C228.816 104.035 227.927 103.17 227.063 102.276C217.805 92.7042 211.946 80.1038 210.457 66.5633C210.302 65.1387 210.201 63.7002 210.152 62.2478C210.124 61.6537 210.109 61.0595 210.103 60.4622C210.103 60.4143 210.103 60.3695 210.103 60.3248C210.103 60.098 210.103 59.8712 210.103 59.6444C210.103 59.111 210.103 58.5775 210.124 58.0473C210.178 55.8027 210.353 53.5631 210.649 51.3392C210.807 50.1317 211.001 48.9349 211.231 47.7488C211.898 44.2724 212.859 40.8654 214.105 37.5685C214.511 36.476 214.953 35.4016 215.43 34.3454C216.453 32.0436 217.617 29.8136 218.914 27.6692C219.584 26.5512 220.29 25.4609 221.032 24.3983C225.75 17.5932 231.78 11.9043 238.732 7.7009C245.684 3.49755 253.401 0.873785 261.384 0C250.638 10.8419 244.376 25.6668 243.942 41.293C243.942 41.6636 243.923 42.0373 243.92 42.411C243.92 42.6506 243.92 42.8934 243.92 43.133C243.912 51.008 245.386 58.8073 248.257 66.0847C251.128 73.362 255.341 79.9744 260.653 85.5435C265.965 91.1126 272.273 95.529 279.216 98.5399C286.159 101.551 293.6 103.097 301.113 103.09C303.079 103.091 305.043 102.987 306.998 102.777Z" fill="#FFE49D"/>
<path d="M99.9795 178.161H99.9643C99.9715 178.174 99.9808 178.186 99.9917 178.196C99.9838 178.186 99.9795 178.173 99.9795 178.161ZM89.0596 172.95C88.7945 172.825 88.5263 172.697 88.2642 172.566C88.7071 172.86 89.1541 173.148 89.6052 173.429C89.4162 173.272 89.2364 173.113 89.0596 172.95Z" fill="#E0B43D"/>
<path d="M99.9795 178.161H99.9643C99.9715 178.174 99.9808 178.186 99.9917 178.196C99.9838 178.186 99.9795 178.173 99.9795 178.161ZM89.0596 172.95C88.7945 172.825 88.5263 172.697 88.2642 172.566C88.7071 172.86 89.1541 173.148 89.6052 173.429C89.4162 173.272 89.2364 173.113 89.0596 172.95Z" fill="#F5F5B8"/>
<path d="M99.9795 178.161H99.9643C99.9715 178.174 99.9808 178.186 99.9917 178.196C99.9838 178.186 99.9795 178.173 99.9795 178.161ZM89.0596 172.95C88.7945 172.825 88.5263 172.697 88.2642 172.566C88.7071 172.86 89.1541 173.148 89.6052 173.429C89.4162 173.272 89.2364 173.113 89.0596 172.95Z" fill="#FFE49D"/>
<path d="M124.438 155.948C124.44 157.787 124.226 159.619 123.801 161.404C123.52 162.586 123.146 163.742 122.683 164.86C121.291 168.229 119.135 171.189 116.402 173.484C114.583 175.014 112.537 176.22 110.346 177.056C109.276 177.469 108.177 177.789 107.057 178.014C104.724 178.48 102.332 178.539 99.9805 178.186H99.9653C99.4045 178.103 98.8509 177.997 98.3043 177.867L97.774 177.653C94.9471 176.478 92.2148 175.067 89.6031 173.433C89.4203 173.28 89.2405 173.114 89.0637 172.957C86.7289 170.853 84.8558 168.244 83.5728 165.31C82.2898 162.375 81.6272 159.185 81.6304 155.957C81.6301 155.006 81.6871 154.055 81.8011 153.111C82.4357 147.883 84.8101 143.057 88.506 139.484C89.1341 138.873 89.7977 138.303 90.4931 137.778C94.1372 135.007 98.5257 133.517 103.028 133.523C103.376 133.523 103.723 133.523 104.067 133.549C104.275 133.549 104.479 133.575 104.677 133.587C105.201 133.632 105.725 133.693 106.241 133.776C106.695 137.336 108.367 140.602 110.945 142.969C113.523 145.335 116.833 146.64 120.26 146.643C120.981 146.644 121.702 146.586 122.415 146.47C122.727 147.167 123.004 147.882 123.244 148.61C124.03 150.969 124.433 153.449 124.438 155.948Z" fill="#E0B43D"/>
<path d="M124.438 155.948C124.44 157.787 124.226 159.619 123.801 161.404C123.52 162.586 123.146 163.742 122.683 164.86C121.291 168.229 119.135 171.189 116.402 173.484C114.583 175.014 112.537 176.22 110.346 177.056C109.276 177.469 108.177 177.789 107.057 178.014C104.724 178.48 102.332 178.539 99.9805 178.186H99.9653C99.4045 178.103 98.8509 177.997 98.3043 177.867L97.774 177.653C94.9471 176.478 92.2148 175.067 89.6031 173.433C89.4203 173.28 89.2405 173.114 89.0637 172.957C86.7289 170.853 84.8558 168.244 83.5728 165.31C82.2898 162.375 81.6272 159.185 81.6304 155.957C81.6301 155.006 81.6871 154.055 81.8011 153.111C82.4357 147.883 84.8101 143.057 88.506 139.484C89.1341 138.873 89.7977 138.303 90.4931 137.778C94.1372 135.007 98.5257 133.517 103.028 133.523C103.376 133.523 103.723 133.523 104.067 133.549C104.275 133.549 104.479 133.575 104.677 133.587C105.201 133.632 105.725 133.693 106.241 133.776C106.695 137.336 108.367 140.602 110.945 142.969C113.523 145.335 116.833 146.64 120.26 146.643C120.981 146.644 121.702 146.586 122.415 146.47C122.727 147.167 123.004 147.882 123.244 148.61C124.03 150.969 124.433 153.449 124.438 155.948Z" fill="#F5F5B8"/>
<path d="M124.438 155.948C124.44 157.787 124.226 159.619 123.801 161.404C123.52 162.586 123.146 163.742 122.683 164.86C121.291 168.229 119.135 171.189 116.402 173.484C114.583 175.014 112.537 176.22 110.346 177.056C109.276 177.469 108.177 177.789 107.057 178.014C104.724 178.48 102.332 178.539 99.9805 178.186H99.9653C99.4045 178.103 98.8509 177.997 98.3043 177.867L97.774 177.653C94.9471 176.478 92.2148 175.067 89.6031 173.433C89.4203 173.28 89.2405 173.114 89.0637 172.957C86.7289 170.853 84.8558 168.244 83.5728 165.31C82.2898 162.375 81.6272 159.185 81.6304 155.957C81.6301 155.006 81.6871 154.055 81.8011 153.111C82.4357 147.883 84.8101 143.057 88.506 139.484C89.1341 138.873 89.7977 138.303 90.4931 137.778C94.1372 135.007 98.5257 133.517 103.028 133.523C103.376 133.523 103.723 133.523 104.067 133.549C104.275 133.549 104.479 133.575 104.677 133.587C105.201 133.632 105.725 133.693 106.241 133.776C106.695 137.336 108.367 140.602 110.945 142.969C113.523 145.335 116.833 146.64 120.26 146.643C120.981 146.644 121.702 146.586 122.415 146.47C122.727 147.167 123.004 147.882 123.244 148.61C124.03 150.969 124.433 153.449 124.438 155.948Z" fill="#FFE49D"/>
<path d="M96.9319 59.6412C96.9319 59.9128 96.9319 60.1875 96.9319 60.459C96.9319 60.5261 96.9319 60.5931 96.9319 60.6602C96.9319 61.1905 96.9105 61.7175 96.8862 62.2574C96.8293 63.7097 96.7226 65.1482 96.5661 66.5729C95.9454 72.2363 94.5537 77.7773 92.4335 83.0269C89.5151 90.2377 85.2784 96.7802 79.9623 102.285C79.1008 103.18 78.2119 104.044 77.2956 104.879C77.1523 105.013 76.9908 105.144 76.8598 105.275C74.1749 107.68 71.2835 109.818 68.2226 111.664C67.6131 112.028 67.0035 112.38 66.394 112.718C64.9433 113.519 63.456 114.256 61.9322 114.929C56.3405 117.392 50.4089 118.901 44.3622 119.401C42.8363 119.531 41.2942 119.596 39.7358 119.596C24.9082 119.617 10.6558 113.584 0 102.777C1.9532 102.989 3.91542 103.095 5.879 103.097C10.7783 103.101 15.6579 102.446 20.3982 101.148C32.6309 97.7797 43.4544 90.2589 51.1776 79.7611C58.9009 69.2633 63.0889 56.3797 63.0872 43.1234C63.0872 42.8838 63.0872 42.641 63.0872 42.4015C63.0872 41.8584 63.069 41.3186 63.0507 40.7756C62.485 25.3321 56.2349 10.7183 45.6118 0C53.5997 0.865701 61.3243 3.48446 68.2828 7.68589C75.2414 11.8873 81.278 17.5773 85.9998 24.3855C86.5971 25.2373 87.1721 26.1115 87.7248 27.008C89.1789 29.3487 90.4733 31.7942 91.5984 34.3262C92.1592 35.5869 92.6793 36.8731 93.1588 38.185C94.2935 41.2843 95.1774 44.4781 95.8012 47.7328C96.0348 48.953 96.238 50.1871 96.4107 51.435C96.6958 53.6223 96.8647 55.8244 96.9166 58.0313C96.9166 58.5647 96.9319 59.095 96.9319 59.6412Z" fill="#E0B43D"/>
<path d="M96.9319 59.6412C96.9319 59.9128 96.9319 60.1875 96.9319 60.459C96.9319 60.5261 96.9319 60.5931 96.9319 60.6602C96.9319 61.1905 96.9105 61.7175 96.8862 62.2574C96.8293 63.7097 96.7226 65.1482 96.5661 66.5729C95.9454 72.2363 94.5537 77.7773 92.4335 83.0269C89.5151 90.2377 85.2784 96.7802 79.9623 102.285C79.1008 103.18 78.2119 104.044 77.2956 104.879C77.1523 105.013 76.9908 105.144 76.8598 105.275C74.1749 107.68 71.2835 109.818 68.2226 111.664C67.6131 112.028 67.0035 112.38 66.394 112.718C64.9433 113.519 63.456 114.256 61.9322 114.929C56.3405 117.392 50.4089 118.901 44.3622 119.401C42.8363 119.531 41.2942 119.596 39.7358 119.596C24.9082 119.617 10.6558 113.584 0 102.777C1.9532 102.989 3.91542 103.095 5.879 103.097C10.7783 103.101 15.6579 102.446 20.3982 101.148C32.6309 97.7797 43.4544 90.2589 51.1776 79.7611C58.9009 69.2633 63.0889 56.3797 63.0872 43.1234C63.0872 42.8838 63.0872 42.641 63.0872 42.4015C63.0872 41.8584 63.069 41.3186 63.0507 40.7756C62.485 25.3321 56.2349 10.7183 45.6118 0C53.5997 0.865701 61.3243 3.48446 68.2828 7.68589C75.2414 11.8873 81.278 17.5773 85.9998 24.3855C86.5971 25.2373 87.1721 26.1115 87.7248 27.008C89.1789 29.3487 90.4733 31.7942 91.5984 34.3262C92.1592 35.5869 92.6793 36.8731 93.1588 38.185C94.2935 41.2843 95.1774 44.4781 95.8012 47.7328C96.0348 48.953 96.238 50.1871 96.4107 51.435C96.6958 53.6223 96.8647 55.8244 96.9166 58.0313C96.9166 58.5647 96.9319 59.095 96.9319 59.6412Z" fill="#F5F5B8"/>
<path d="M96.9319 59.6412C96.9319 59.9128 96.9319 60.1875 96.9319 60.459C96.9319 60.5261 96.9319 60.5931 96.9319 60.6602C96.9319 61.1905 96.9105 61.7175 96.8862 62.2574C96.8293 63.7097 96.7226 65.1482 96.5661 66.5729C95.9454 72.2363 94.5537 77.7773 92.4335 83.0269C89.5151 90.2377 85.2784 96.7802 79.9623 102.285C79.1008 103.18 78.2119 104.044 77.2956 104.879C77.1523 105.013 76.9908 105.144 76.8598 105.275C74.1749 107.68 71.2835 109.818 68.2226 111.664C67.6131 112.028 67.0035 112.38 66.394 112.718C64.9433 113.519 63.456 114.256 61.9322 114.929C56.3405 117.392 50.4089 118.901 44.3622 119.401C42.8363 119.531 41.2942 119.596 39.7358 119.596C24.9082 119.617 10.6558 113.584 0 102.777C1.9532 102.989 3.91542 103.095 5.879 103.097C10.7783 103.101 15.6579 102.446 20.3982 101.148C32.6309 97.7797 43.4544 90.2589 51.1776 79.7611C58.9009 69.2633 63.0889 56.3797 63.0872 43.1234C63.0872 42.8838 63.0872 42.641 63.0872 42.4015C63.0872 41.8584 63.069 41.3186 63.0507 40.7756C62.485 25.3321 56.2349 10.7183 45.6118 0C53.5997 0.865701 61.3243 3.48446 68.2828 7.68589C75.2414 11.8873 81.278 17.5773 85.9998 24.3855C86.5971 25.2373 87.1721 26.1115 87.7248 27.008C89.1789 29.3487 90.4733 31.7942 91.5984 34.3262C92.1592 35.5869 92.6793 36.8731 93.1588 38.185C94.2935 41.2843 95.1774 44.4781 95.8012 47.7328C96.0348 48.953 96.238 50.1871 96.4107 51.435C96.6958 53.6223 96.8647 55.8244 96.9166 58.0313C96.9166 58.5647 96.9319 59.095 96.9319 59.6412Z" fill="#FFE49D"/>
<path d="M89.0596 172.95C88.7945 172.825 88.5263 172.697 88.2642 172.566C88.7071 172.86 89.1541 173.148 89.6052 173.429C89.4162 173.272 89.2364 173.113 89.0596 172.95ZM99.9795 178.161H99.9643C99.9715 178.174 99.9808 178.186 99.9917 178.196C99.9838 178.186 99.9795 178.173 99.9795 178.161Z" fill="#E0B43D"/>
<path d="M89.0596 172.95C88.7945 172.825 88.5263 172.697 88.2642 172.566C88.7071 172.86 89.1541 173.148 89.6052 173.429C89.4162 173.272 89.2364 173.113 89.0596 172.95ZM99.9795 178.161H99.9643C99.9715 178.174 99.9808 178.186 99.9917 178.196C99.9838 178.186 99.9795 178.173 99.9795 178.161Z" fill="#F5F5B8"/>
<path d="M89.0596 172.95C88.7945 172.825 88.5263 172.697 88.2642 172.566C88.7071 172.86 89.1541 173.148 89.6052 173.429C89.4162 173.272 89.2364 173.113 89.0596 172.95ZM99.9795 178.161H99.9643C99.9715 178.174 99.9808 178.186 99.9917 178.196C99.9838 178.186 99.9795 178.173 99.9795 178.161Z" fill="#FFE49D"/>
<path d="M130.603 189.918C130.603 190.189 130.581 190.464 130.581 190.742C130.581 191.553 130.644 192.363 130.77 193.163C125.947 190.055 121.589 186.215 117.839 181.769C118.144 181.769 118.448 181.769 118.753 181.769C121.338 181.77 123.92 181.588 126.482 181.226C129.76 180.764 132.993 180.001 136.143 178.945C134.52 180.243 133.184 181.894 132.227 183.785C131.271 185.676 130.717 187.762 130.603 189.899V189.918Z" fill="#E0B43D"/>
<path d="M130.603 189.918C130.603 190.189 130.581 190.464 130.581 190.742C130.581 191.553 130.644 192.363 130.77 193.163C125.947 190.055 121.589 186.215 117.839 181.769C118.144 181.769 118.448 181.769 118.753 181.769C121.338 181.77 123.92 181.588 126.482 181.226C129.76 180.764 132.993 180.001 136.143 178.945C134.52 180.243 133.184 181.894 132.227 183.785C131.271 185.676 130.717 187.762 130.603 189.899V189.918Z" fill="#F5F5B8"/>
<path d="M130.603 189.918C130.603 190.189 130.581 190.464 130.581 190.742C130.581 191.553 130.644 192.363 130.77 193.163C125.947 190.055 121.589 186.215 117.839 181.769C118.144 181.769 118.448 181.769 118.753 181.769C121.338 181.77 123.92 181.588 126.482 181.226C129.76 180.764 132.993 180.001 136.143 178.945C134.52 180.243 133.184 181.894 132.227 183.785C131.271 185.676 130.717 187.762 130.603 189.899V189.918Z" fill="#FFE49D"/>
<path d="M89.0596 172.948C88.7945 172.824 88.5263 172.697 88.2642 172.566C88.7071 172.859 89.1541 173.146 89.6052 173.426C89.4162 173.27 89.2364 173.111 89.0596 172.948Z" fill="#E0B43D"/>
<path d="M89.0596 172.948C88.7945 172.824 88.5263 172.697 88.2642 172.566C88.7071 172.859 89.1541 173.146 89.6052 173.426C89.4162 173.27 89.2364 173.111 89.0596 172.948Z" fill="#F5F5B8"/>
<path d="M89.0596 172.948C88.7945 172.824 88.5263 172.697 88.2642 172.566C88.7071 172.859 89.1541 173.146 89.6052 173.426C89.4162 173.27 89.2364 173.111 89.0596 172.948Z" fill="#FFE49D"/>
<path d="M236.606 153.858C231.76 161.878 225.175 168.584 217.387 173.43C219.883 171.329 221.897 168.667 223.28 165.64C224.663 162.613 225.379 159.3 225.375 155.944C225.375 154.994 225.319 154.044 225.207 153.101C224.532 147.544 221.894 142.454 217.814 138.835C217.397 138.463 216.965 138.108 216.518 137.772C213.282 135.306 209.447 133.848 205.455 133.565C204.965 133.53 204.468 133.51 203.968 133.51C203.398 133.51 202.834 133.533 202.273 133.578C201.761 133.622 201.253 133.683 200.75 133.763C201.051 131.402 200.805 129 200.034 126.76C199.263 124.52 197.988 122.508 196.318 120.893C194.919 119.539 193.272 118.496 191.479 117.825C189.685 117.155 187.781 116.87 185.879 116.99C183.978 117.109 182.12 117.629 180.415 118.52C178.711 119.41 177.195 120.652 175.96 122.171C175.623 122.583 175.308 123.015 175.018 123.464C174.762 123.856 174.525 124.261 174.308 124.678C172.916 127.341 172.336 130.387 172.649 133.405C172.961 136.424 174.15 139.269 176.054 141.557L176.213 141.745C176.996 142.654 177.884 143.457 178.855 144.138C180.207 145.09 181.708 145.788 183.289 146.198C183.71 146.31 184.137 146.4 184.566 146.467C182.496 151.139 182.014 156.414 183.201 161.413C183.482 162.595 183.856 163.751 184.32 164.869C185.711 168.237 187.866 171.198 190.598 173.494C191.427 174.187 192.305 174.812 193.225 175.366C194.353 176.053 195.54 176.631 196.769 177.091C197.926 177.526 199.117 177.854 200.329 178.068C201.531 178.283 202.749 178.39 203.968 178.387C204.748 178.388 205.527 178.344 206.303 178.257C207.112 178.165 207.916 178.025 208.71 177.835C207.763 178.214 206.804 178.567 205.833 178.895C203.176 179.795 200.459 180.489 197.705 180.972C194.659 181.5 191.577 181.771 188.489 181.783H188.242C185.658 181.784 183.077 181.602 180.516 181.24C177.239 180.778 174.008 180.016 170.858 178.962C169.076 178.368 167.334 177.686 165.631 176.915C164.973 176.617 164.322 176.307 163.677 175.985C163.229 175.765 162.788 175.535 162.346 175.302C159.237 173.64 156.278 171.686 153.507 169.463C154.233 168.879 154.944 168.279 155.641 167.661C156.799 166.639 157.916 165.574 158.993 164.467C159.664 163.772 160.317 163.062 160.953 162.336C161.91 161.239 162.824 160.107 163.696 158.94C163.857 158.73 164.001 158.516 164.171 158.302C165.094 157.024 165.971 155.718 166.804 154.385C165.274 155.361 163.698 156.26 162.074 157.085C159.652 158.318 157.148 159.368 154.583 160.228C154.224 160.349 153.858 160.467 153.492 160.579L153.294 160.518C150.377 159.597 147.535 158.43 144.797 157.03C143.216 156.223 141.676 155.342 140.177 154.385C141.006 155.729 141.883 157.034 142.81 158.302C142.941 158.484 143.078 158.669 143.215 158.851C144.113 160.05 145.054 161.212 146.037 162.336C146.85 163.256 147.68 164.148 148.527 165.013C149.44 165.933 150.378 166.821 151.343 167.677C152.042 168.292 152.754 168.893 153.477 169.479C150.773 171.648 147.889 173.56 144.861 175.193C144.346 175.471 143.828 175.743 143.304 176.001C142.869 176.214 142.43 176.427 141.987 176.64C137.053 178.937 131.831 180.486 126.48 181.24C123.919 181.602 121.336 181.784 118.751 181.783C118.447 181.783 118.142 181.783 117.837 181.783C115.611 181.749 113.388 181.578 111.181 181.272C107.468 180.756 103.814 179.856 100.27 178.586L100.069 178.512C99.4595 178.298 98.8805 178.068 98.2953 177.835C98.8398 177.967 99.3935 178.073 99.9563 178.154C99.9636 178.167 99.9728 178.179 99.9837 178.189C99.9807 178.179 99.9807 178.168 99.9837 178.158C102.336 178.51 104.727 178.451 107.06 177.985C108.18 177.76 109.28 177.44 110.349 177.027C112.54 176.191 114.586 174.985 116.405 173.455C119.138 171.16 121.295 168.2 122.686 164.831C123.15 163.713 123.524 162.557 123.805 161.375C124.809 157.141 124.622 152.693 123.265 148.568C123.025 147.84 122.749 147.126 122.436 146.428C122.867 146.362 123.294 146.272 123.716 146.16C125.297 145.747 126.797 145.05 128.151 144.1C129.121 143.417 130.009 142.612 130.793 141.704C130.948 141.522 131.098 141.337 131.247 141.148C133.029 138.861 134.12 136.068 134.378 133.128C134.637 130.187 134.051 127.233 132.698 124.643C132.554 124.362 132.393 124.087 132.234 123.819C131.877 123.23 131.48 122.668 131.046 122.139C129.323 120.021 127.066 118.456 124.533 117.622C122.482 116.945 120.311 116.767 118.184 117.101C116.058 117.436 114.032 118.273 112.26 119.551C110.489 120.828 109.018 122.512 107.96 124.474C106.903 126.436 106.285 128.625 106.155 130.875C106.137 131.171 106.128 131.471 106.128 131.776C106.128 132.434 106.17 133.091 106.253 133.744C105.738 133.661 105.214 133.6 104.689 133.555C104.482 133.555 104.278 133.526 104.08 133.517C103.735 133.501 103.388 133.491 103.041 133.491C98.5336 133.483 94.1404 134.974 90.4932 137.749C89.7979 138.274 89.1342 138.844 88.5061 139.455C84.8102 143.028 82.4358 147.854 81.8012 153.082C81.6873 154.026 81.6302 154.977 81.6305 155.928C81.6273 159.156 82.2899 162.346 83.5729 165.281C84.856 168.215 86.729 170.824 89.0639 172.928C88.7987 172.804 88.5305 172.676 88.2684 172.545C81.0651 167.781 74.9627 161.398 70.4028 153.858C70.8019 148.877 71.7962 143.969 73.3621 139.247C73.5511 138.688 73.7431 138.129 73.9443 137.58C76.0054 131.931 78.8713 126.642 82.4443 121.893C82.5327 121.771 82.6241 121.653 82.7155 121.535C87.3438 115.469 93.0496 110.401 99.5174 106.611C105.985 102.816 113.099 100.385 120.458 99.4557C122.396 99.2046 124.345 99.0596 126.298 99.0213C126.66 99.0213 127.023 99.0213 127.389 99.0213C129.973 99.0207 132.554 99.2021 135.115 99.5643C136.187 99.7155 137.252 99.8987 138.308 100.114C139.156 100.282 139.996 100.473 140.829 100.686C141.179 100.775 141.527 100.864 141.874 100.96C143.605 101.433 145.302 101.988 146.964 102.625C147.884 102.976 148.792 103.35 149.686 103.746C150.982 104.325 152.254 104.949 153.501 105.618C154.702 104.979 155.927 104.376 157.177 103.81C158.373 103.273 159.593 102.779 160.834 102.327C162.331 101.782 163.855 101.302 165.406 100.887C166.015 100.721 166.635 100.566 167.265 100.424C167.74 100.312 168.219 100.21 168.697 100.104C169.752 99.8912 170.816 99.7081 171.891 99.5548C174.452 99.1926 177.033 99.0111 179.617 99.0117C179.983 99.0117 180.345 99.0117 180.708 99.0117C182.427 99.0437 184.126 99.1555 185.807 99.3471C193.004 100.155 199.988 102.397 206.382 105.953C213.306 109.804 219.403 115.1 224.299 121.516C224.391 121.634 224.482 121.752 224.57 121.874C228.144 126.623 231.01 131.914 233.07 137.564C233.274 138.113 233.468 138.668 233.653 139.228C235.218 143.956 236.21 148.871 236.606 153.858Z" fill="#E0B43D"/>
<path d="M236.606 153.858C231.76 161.878 225.175 168.584 217.387 173.43C219.883 171.329 221.897 168.667 223.28 165.64C224.663 162.613 225.379 159.3 225.375 155.944C225.375 154.994 225.319 154.044 225.207 153.101C224.532 147.544 221.894 142.454 217.814 138.835C217.397 138.463 216.965 138.108 216.518 137.772C213.282 135.306 209.447 133.848 205.455 133.565C204.965 133.53 204.468 133.51 203.968 133.51C203.398 133.51 202.834 133.533 202.273 133.578C201.761 133.622 201.253 133.683 200.75 133.763C201.051 131.402 200.805 129 200.034 126.76C199.263 124.52 197.988 122.508 196.318 120.893C194.919 119.539 193.272 118.496 191.479 117.825C189.685 117.155 187.781 116.87 185.879 116.99C183.978 117.109 182.12 117.629 180.415 118.52C178.711 119.41 177.195 120.652 175.96 122.171C175.623 122.583 175.308 123.015 175.018 123.464C174.762 123.856 174.525 124.261 174.308 124.678C172.916 127.341 172.336 130.387 172.649 133.405C172.961 136.424 174.15 139.269 176.054 141.557L176.213 141.745C176.996 142.654 177.884 143.457 178.855 144.138C180.207 145.09 181.708 145.788 183.289 146.198C183.71 146.31 184.137 146.4 184.566 146.467C182.496 151.139 182.014 156.414 183.201 161.413C183.482 162.595 183.856 163.751 184.32 164.869C185.711 168.237 187.866 171.198 190.598 173.494C191.427 174.187 192.305 174.812 193.225 175.366C194.353 176.053 195.54 176.631 196.769 177.091C197.926 177.526 199.117 177.854 200.329 178.068C201.531 178.283 202.749 178.39 203.968 178.387C204.748 178.388 205.527 178.344 206.303 178.257C207.112 178.165 207.916 178.025 208.71 177.835C207.763 178.214 206.804 178.567 205.833 178.895C203.176 179.795 200.459 180.489 197.705 180.972C194.659 181.5 191.577 181.771 188.489 181.783H188.242C185.658 181.784 183.077 181.602 180.516 181.24C177.239 180.778 174.008 180.016 170.858 178.962C169.076 178.368 167.334 177.686 165.631 176.915C164.973 176.617 164.322 176.307 163.677 175.985C163.229 175.765 162.788 175.535 162.346 175.302C159.237 173.64 156.278 171.686 153.507 169.463C154.233 168.879 154.944 168.279 155.641 167.661C156.799 166.639 157.916 165.574 158.993 164.467C159.664 163.772 160.317 163.062 160.953 162.336C161.91 161.239 162.824 160.107 163.696 158.94C163.857 158.73 164.001 158.516 164.171 158.302C165.094 157.024 165.971 155.718 166.804 154.385C165.274 155.361 163.698 156.26 162.074 157.085C159.652 158.318 157.148 159.368 154.583 160.228C154.224 160.349 153.858 160.467 153.492 160.579L153.294 160.518C150.377 159.597 147.535 158.43 144.797 157.03C143.216 156.223 141.676 155.342 140.177 154.385C141.006 155.729 141.883 157.034 142.81 158.302C142.941 158.484 143.078 158.669 143.215 158.851C144.113 160.05 145.054 161.212 146.037 162.336C146.85 163.256 147.68 164.148 148.527 165.013C149.44 165.933 150.378 166.821 151.343 167.677C152.042 168.292 152.754 168.893 153.477 169.479C150.773 171.648 147.889 173.56 144.861 175.193C144.346 175.471 143.828 175.743 143.304 176.001C142.869 176.214 142.43 176.427 141.987 176.64C137.053 178.937 131.831 180.486 126.48 181.24C123.919 181.602 121.336 181.784 118.751 181.783C118.447 181.783 118.142 181.783 117.837 181.783C115.611 181.749 113.388 181.578 111.181 181.272C107.468 180.756 103.814 179.856 100.27 178.586L100.069 178.512C99.4595 178.298 98.8805 178.068 98.2953 177.835C98.8398 177.967 99.3935 178.073 99.9563 178.154C99.9636 178.167 99.9728 178.179 99.9837 178.189C99.9807 178.179 99.9807 178.168 99.9837 178.158C102.336 178.51 104.727 178.451 107.06 177.985C108.18 177.76 109.28 177.44 110.349 177.027C112.54 176.191 114.586 174.985 116.405 173.455C119.138 171.16 121.295 168.2 122.686 164.831C123.15 163.713 123.524 162.557 123.805 161.375C124.809 157.141 124.622 152.693 123.265 148.568C123.025 147.84 122.749 147.126 122.436 146.428C122.867 146.362 123.294 146.272 123.716 146.16C125.297 145.747 126.797 145.05 128.151 144.1C129.121 143.417 130.009 142.612 130.793 141.704C130.948 141.522 131.098 141.337 131.247 141.148C133.029 138.861 134.12 136.068 134.378 133.128C134.637 130.187 134.051 127.233 132.698 124.643C132.554 124.362 132.393 124.087 132.234 123.819C131.877 123.23 131.48 122.668 131.046 122.139C129.323 120.021 127.066 118.456 124.533 117.622C122.482 116.945 120.311 116.767 118.184 117.101C116.058 117.436 114.032 118.273 112.26 119.551C110.489 120.828 109.018 122.512 107.96 124.474C106.903 126.436 106.285 128.625 106.155 130.875C106.137 131.171 106.128 131.471 106.128 131.776C106.128 132.434 106.17 133.091 106.253 133.744C105.738 133.661 105.214 133.6 104.689 133.555C104.482 133.555 104.278 133.526 104.08 133.517C103.735 133.501 103.388 133.491 103.041 133.491C98.5336 133.483 94.1404 134.974 90.4932 137.749C89.7979 138.274 89.1342 138.844 88.5061 139.455C84.8102 143.028 82.4358 147.854 81.8012 153.082C81.6873 154.026 81.6302 154.977 81.6305 155.928C81.6273 159.156 82.2899 162.346 83.5729 165.281C84.856 168.215 86.729 170.824 89.0639 172.928C88.7987 172.804 88.5305 172.676 88.2684 172.545C81.0651 167.781 74.9627 161.398 70.4028 153.858C70.8019 148.877 71.7962 143.969 73.3621 139.247C73.5511 138.688 73.7431 138.129 73.9443 137.58C76.0054 131.931 78.8713 126.642 82.4443 121.893C82.5327 121.771 82.6241 121.653 82.7155 121.535C87.3438 115.469 93.0496 110.401 99.5174 106.611C105.985 102.816 113.099 100.385 120.458 99.4557C122.396 99.2046 124.345 99.0596 126.298 99.0213C126.66 99.0213 127.023 99.0213 127.389 99.0213C129.973 99.0207 132.554 99.2021 135.115 99.5643C136.187 99.7155 137.252 99.8987 138.308 100.114C139.156 100.282 139.996 100.473 140.829 100.686C141.179 100.775 141.527 100.864 141.874 100.96C143.605 101.433 145.302 101.988 146.964 102.625C147.884 102.976 148.792 103.35 149.686 103.746C150.982 104.325 152.254 104.949 153.501 105.618C154.702 104.979 155.927 104.376 157.177 103.81C158.373 103.273 159.593 102.779 160.834 102.327C162.331 101.782 163.855 101.302 165.406 100.887C166.015 100.721 166.635 100.566 167.265 100.424C167.74 100.312 168.219 100.21 168.697 100.104C169.752 99.8912 170.816 99.7081 171.891 99.5548C174.452 99.1926 177.033 99.0111 179.617 99.0117C179.983 99.0117 180.345 99.0117 180.708 99.0117C182.427 99.0437 184.126 99.1555 185.807 99.3471C193.004 100.155 199.988 102.397 206.382 105.953C213.306 109.804 219.403 115.1 224.299 121.516C224.391 121.634 224.482 121.752 224.57 121.874C228.144 126.623 231.01 131.914 233.07 137.564C233.274 138.113 233.468 138.668 233.653 139.228C235.218 143.956 236.21 148.871 236.606 153.858Z" fill="#F5F5B8"/>
<path d="M236.606 153.858C231.76 161.878 225.175 168.584 217.387 173.43C219.883 171.329 221.897 168.667 223.28 165.64C224.663 162.613 225.379 159.3 225.375 155.944C225.375 154.994 225.319 154.044 225.207 153.101C224.532 147.544 221.894 142.454 217.814 138.835C217.397 138.463 216.965 138.108 216.518 137.772C213.282 135.306 209.447 133.848 205.455 133.565C204.965 133.53 204.468 133.51 203.968 133.51C203.398 133.51 202.834 133.533 202.273 133.578C201.761 133.622 201.253 133.683 200.75 133.763C201.051 131.402 200.805 129 200.034 126.76C199.263 124.52 197.988 122.508 196.318 120.893C194.919 119.539 193.272 118.496 191.479 117.825C189.685 117.155 187.781 116.87 185.879 116.99C183.978 117.109 182.12 117.629 180.415 118.52C178.711 119.41 177.195 120.652 175.96 122.171C175.623 122.583 175.308 123.015 175.018 123.464C174.762 123.856 174.525 124.261 174.308 124.678C172.916 127.341 172.336 130.387 172.649 133.405C172.961 136.424 174.15 139.269 176.054 141.557L176.213 141.745C176.996 142.654 177.884 143.457 178.855 144.138C180.207 145.09 181.708 145.788 183.289 146.198C183.71 146.31 184.137 146.4 184.566 146.467C182.496 151.139 182.014 156.414 183.201 161.413C183.482 162.595 183.856 163.751 184.32 164.869C185.711 168.237 187.866 171.198 190.598 173.494C191.427 174.187 192.305 174.812 193.225 175.366C194.353 176.053 195.54 176.631 196.769 177.091C197.926 177.526 199.117 177.854 200.329 178.068C201.531 178.283 202.749 178.39 203.968 178.387C204.748 178.388 205.527 178.344 206.303 178.257C207.112 178.165 207.916 178.025 208.71 177.835C207.763 178.214 206.804 178.567 205.833 178.895C203.176 179.795 200.459 180.489 197.705 180.972C194.659 181.5 191.577 181.771 188.489 181.783H188.242C185.658 181.784 183.077 181.602 180.516 181.24C177.239 180.778 174.008 180.016 170.858 178.962C169.076 178.368 167.334 177.686 165.631 176.915C164.973 176.617 164.322 176.307 163.677 175.985C163.229 175.765 162.788 175.535 162.346 175.302C159.237 173.64 156.278 171.686 153.507 169.463C154.233 168.879 154.944 168.279 155.641 167.661C156.799 166.639 157.916 165.574 158.993 164.467C159.664 163.772 160.317 163.062 160.953 162.336C161.91 161.239 162.824 160.107 163.696 158.94C163.857 158.73 164.001 158.516 164.171 158.302C165.094 157.024 165.971 155.718 166.804 154.385C165.274 155.361 163.698 156.26 162.074 157.085C159.652 158.318 157.148 159.368 154.583 160.228C154.224 160.349 153.858 160.467 153.492 160.579L153.294 160.518C150.377 159.597 147.535 158.43 144.797 157.03C143.216 156.223 141.676 155.342 140.177 154.385C141.006 155.729 141.883 157.034 142.81 158.302C142.941 158.484 143.078 158.669 143.215 158.851C144.113 160.05 145.054 161.212 146.037 162.336C146.85 163.256 147.68 164.148 148.527 165.013C149.44 165.933 150.378 166.821 151.343 167.677C152.042 168.292 152.754 168.893 153.477 169.479C150.773 171.648 147.889 173.56 144.861 175.193C144.346 175.471 143.828 175.743 143.304 176.001C142.869 176.214 142.43 176.427 141.987 176.64C137.053 178.937 131.831 180.486 126.48 181.24C123.919 181.602 121.336 181.784 118.751 181.783C118.447 181.783 118.142 181.783 117.837 181.783C115.611 181.749 113.388 181.578 111.181 181.272C107.468 180.756 103.814 179.856 100.27 178.586L100.069 178.512C99.4595 178.298 98.8805 178.068 98.2953 177.835C98.8398 177.967 99.3935 178.073 99.9563 178.154C99.9636 178.167 99.9728 178.179 99.9837 178.189C99.9807 178.179 99.9807 178.168 99.9837 178.158C102.336 178.51 104.727 178.451 107.06 177.985C108.18 177.76 109.28 177.44 110.349 177.027C112.54 176.191 114.586 174.985 116.405 173.455C119.138 171.16 121.295 168.2 122.686 164.831C123.15 163.713 123.524 162.557 123.805 161.375C124.809 157.141 124.622 152.693 123.265 148.568C123.025 147.84 122.749 147.126 122.436 146.428C122.867 146.362 123.294 146.272 123.716 146.16C125.297 145.747 126.797 145.05 128.151 144.1C129.121 143.417 130.009 142.612 130.793 141.704C130.948 141.522 131.098 141.337 131.247 141.148C133.029 138.861 134.12 136.068 134.378 133.128C134.637 130.187 134.051 127.233 132.698 124.643C132.554 124.362 132.393 124.087 132.234 123.819C131.877 123.23 131.48 122.668 131.046 122.139C129.323 120.021 127.066 118.456 124.533 117.622C122.482 116.945 120.311 116.767 118.184 117.101C116.058 117.436 114.032 118.273 112.26 119.551C110.489 120.828 109.018 122.512 107.96 124.474C106.903 126.436 106.285 128.625 106.155 130.875C106.137 131.171 106.128 131.471 106.128 131.776C106.128 132.434 106.17 133.091 106.253 133.744C105.738 133.661 105.214 133.6 104.689 133.555C104.482 133.555 104.278 133.526 104.08 133.517C103.735 133.501 103.388 133.491 103.041 133.491C98.5336 133.483 94.1404 134.974 90.4932 137.749C89.7979 138.274 89.1342 138.844 88.5061 139.455C84.8102 143.028 82.4358 147.854 81.8012 153.082C81.6873 154.026 81.6302 154.977 81.6305 155.928C81.6273 159.156 82.2899 162.346 83.5729 165.281C84.856 168.215 86.729 170.824 89.0639 172.928C88.7987 172.804 88.5305 172.676 88.2684 172.545C81.0651 167.781 74.9627 161.398 70.4028 153.858C70.8019 148.877 71.7962 143.969 73.3621 139.247C73.5511 138.688 73.7431 138.129 73.9443 137.58C76.0054 131.931 78.8713 126.642 82.4443 121.893C82.5327 121.771 82.6241 121.653 82.7155 121.535C87.3438 115.469 93.0496 110.401 99.5174 106.611C105.985 102.816 113.099 100.385 120.458 99.4557C122.396 99.2046 124.345 99.0596 126.298 99.0213C126.66 99.0213 127.023 99.0213 127.389 99.0213C129.973 99.0207 132.554 99.2021 135.115 99.5643C136.187 99.7155 137.252 99.8987 138.308 100.114C139.156 100.282 139.996 100.473 140.829 100.686C141.179 100.775 141.527 100.864 141.874 100.96C143.605 101.433 145.302 101.988 146.964 102.625C147.884 102.976 148.792 103.35 149.686 103.746C150.982 104.325 152.254 104.949 153.501 105.618C154.702 104.979 155.927 104.376 157.177 103.81C158.373 103.273 159.593 102.779 160.834 102.327C162.331 101.782 163.855 101.302 165.406 100.887C166.015 100.721 166.635 100.566 167.265 100.424C167.74 100.312 168.219 100.21 168.697 100.104C169.752 99.8912 170.816 99.7081 171.891 99.5548C174.452 99.1926 177.033 99.0111 179.617 99.0117C179.983 99.0117 180.345 99.0117 180.708 99.0117C182.427 99.0437 184.126 99.1555 185.807 99.3471C193.004 100.155 199.988 102.397 206.382 105.953C213.306 109.804 219.403 115.1 224.299 121.516C224.391 121.634 224.482 121.752 224.57 121.874C228.144 126.623 231.01 131.914 233.07 137.564C233.274 138.113 233.468 138.668 233.653 139.228C235.218 143.956 236.21 148.871 236.606 153.858Z" fill="#FFE49D"/>
</g>
</svg>
