<svg width="288" height="173" viewBox="0 0 288 173" fill="none" xmlns="http://www.w3.org/2000/svg">
<path d="M93.7919 159.492H93.7778C93.7846 159.504 93.7931 159.514 93.8032 159.523C93.7959 159.515 93.7919 159.504 93.7919 159.492Z" fill="#111111"/>
<path d="M93.7931 159.492H93.7788C93.7856 159.503 93.7943 159.514 93.8046 159.523C93.7971 159.514 93.7931 159.503 93.7931 159.492ZM83.549 154.828C83.3002 154.716 83.0486 154.602 82.8027 154.484C83.2183 154.747 83.6376 155.005 84.0607 155.256C83.8835 155.116 83.7148 154.973 83.549 154.828Z" fill="#111111"/>
<path d="M229.906 102.876C228.618 102.332 227.353 101.741 226.112 101.1C225.403 100.734 224.7 100.351 224.011 99.9561C221.139 98.3037 218.427 96.3892 215.908 94.2368C215.771 94.1196 215.622 94.0023 215.499 93.8822C214.641 93.1349 213.808 92.3609 212.997 91.5602C204.312 82.9913 198.815 71.7111 197.418 59.5893C197.273 58.3139 197.178 57.0261 197.132 55.7259C197.107 55.194 197.092 54.6621 197.087 54.1274C197.087 54.0845 197.087 54.0444 197.087 54.0044C197.087 53.8014 197.087 53.5983 197.087 53.3953C197.087 52.9177 197.087 52.4402 197.107 51.9655C197.157 49.956 197.321 47.9511 197.598 45.9602C197.747 44.8793 197.929 43.8078 198.144 42.746C198.77 39.6338 199.672 36.5838 200.841 33.6322C201.222 32.6542 201.636 31.6925 202.084 30.7469C199.29 34.1524 195.854 36.9759 191.972 39.057C190.234 39.9945 188.416 40.7745 186.539 41.3876C184.452 42.0647 182.303 42.5322 180.123 42.7831L179.506 42.5286C173.14 39.9431 166.335 38.6109 159.464 38.6052H159.341C154.147 38.6004 148.98 39.3508 144.002 40.8328C139.023 39.3506 133.855 38.6002 128.66 38.6052H128.537C123.993 38.6121 119.468 39.1954 115.07 40.341C112.833 40.9228 110.636 41.6507 108.494 42.52L107.874 42.7746C105.708 42.5213 103.572 42.0539 101.498 41.379C99.6569 40.7806 97.8717 40.0218 96.1631 39.1113C92.236 37.0225 88.7611 34.1768 85.9389 30.7383C86.465 31.8669 86.953 33.0184 87.4028 34.1927C88.4672 36.9673 89.2964 39.8266 89.8816 42.7402C90.1008 43.8326 90.2914 44.9374 90.4535 46.0546C90.7177 48.01 90.8733 49.9785 90.9195 51.9512C90.9195 52.4287 90.9395 52.9091 90.9395 53.381C90.9395 53.6241 90.9395 53.87 90.9395 54.1131C90.9395 54.1731 90.9395 54.2332 90.9395 54.2932C90.9395 54.7679 90.9195 55.2398 90.8966 55.723C90.8433 57.0232 90.7432 58.311 90.5964 59.5864C90.0141 64.6565 88.7085 69.6169 86.7195 74.3165C83.9816 80.7719 80.0071 86.6289 75.02 91.5573C74.2119 92.358 73.3779 93.132 72.5183 93.8794C72.3839 93.9995 72.2324 94.1167 72.1095 94.234C69.5907 96.3863 66.8783 98.3009 64.0068 99.9533C63.4349 100.279 62.8631 100.594 62.2913 100.897C60.9304 101.614 59.5351 102.273 58.1056 102.876C57.5795 107.485 57.6439 112.143 58.2971 116.737C59.3631 124.208 62.0041 131.367 66.0453 137.741C66.4197 133.282 67.3524 128.887 68.8215 124.661C68.9988 124.16 69.1789 123.66 69.3676 123.168C71.3012 118.111 73.9897 113.376 77.3416 109.124C77.4245 109.015 77.5103 108.91 77.5961 108.804C81.938 103.374 87.2907 98.8368 93.3583 95.4436C99.4257 92.0461 106.1 89.8699 113.003 89.038C114.821 88.8131 116.65 88.6833 118.481 88.6491C118.821 88.6491 119.162 88.6491 119.505 88.6491C121.929 88.6485 124.35 88.8109 126.753 89.1352C127.759 89.2706 128.758 89.4345 129.749 89.6271C130.544 89.7777 131.332 89.9483 132.113 90.1389C132.442 90.219 132.768 90.2991 133.094 90.3849C134.718 90.8081 136.31 91.3047 137.869 91.8747C138.732 92.1893 139.583 92.5239 140.422 92.8785C141.638 93.397 142.831 93.9556 144.002 94.5542C145.128 93.9823 146.277 93.4428 147.45 92.9357C148.572 92.4553 149.716 92.013 150.881 91.6088C152.285 91.1208 153.715 90.6908 155.169 90.3191C155.741 90.1704 156.322 90.0322 156.913 89.9045C157.359 89.8044 157.808 89.7129 158.257 89.6185C159.246 89.4278 160.245 89.2639 161.253 89.1266C163.656 88.8024 166.077 88.64 168.501 88.6405C168.844 88.6405 169.185 88.6405 169.525 88.6405C171.137 88.6691 172.732 88.7692 174.308 88.9407C181.06 89.6638 187.611 91.6711 193.61 94.8545C200.105 98.3018 205.826 103.043 210.419 108.787C210.504 108.893 210.59 108.998 210.673 109.107C214.025 113.359 216.714 118.095 218.647 123.154C218.838 123.645 219.02 124.142 219.193 124.643C220.662 128.87 221.595 133.264 221.969 137.724C226.248 130.977 228.955 123.353 229.889 115.418C230.381 111.244 230.388 107.026 229.912 102.85L229.906 102.876ZM170.62 56.4723C170.148 56.6867 169.679 56.9041 169.216 57.13C164.679 59.3326 160.475 62.1628 156.727 65.5374C156.487 65.7518 156.25 65.9692 156.013 66.1894C154.007 68.0607 152.147 70.0826 150.449 72.2375C150.117 72.6579 149.788 73.0954 149.471 73.5187C149.302 73.7446 149.137 73.9705 148.976 74.1992C148.816 74.428 148.691 74.6168 148.53 74.8284C148.044 75.5233 147.575 76.2353 147.124 76.9559C146.5 77.9454 145.911 78.9577 145.354 79.9929C144.855 80.9194 144.378 81.8622 143.924 82.8211C143.518 81.9479 143.09 81.09 142.638 80.2474C141.952 78.9548 141.214 77.6956 140.425 76.4698C140.122 75.9951 139.81 75.529 139.496 75.0686L139.264 74.7369C138.978 74.3308 138.692 73.9304 138.406 73.5358C138.12 73.1412 137.794 72.7179 137.48 72.3176C135.82 70.2017 134.004 68.2126 132.048 66.3667C131.776 66.1093 131.502 65.8576 131.221 65.606C127.479 62.2308 123.281 59.3987 118.75 57.1929C118.253 56.9489 117.75 56.7134 117.243 56.4866C116.492 56.1491 115.73 55.8289 114.956 55.5257C116.58 55.6325 118.183 55.8088 119.765 56.0548C122.808 56.5314 125.804 57.271 128.72 58.2653C129.04 58.3739 129.357 58.4855 129.675 58.5999H129.692C131.261 59.1718 132.777 59.8038 134.266 60.5101C134.779 60.7522 135.287 61.002 135.79 61.2593C138.672 62.7349 141.416 64.4672 143.987 66.4353C148.136 63.2569 152.728 60.7029 157.617 58.8544C157.853 58.7629 158.093 58.6742 158.337 58.5884C158.646 58.4769 158.958 58.3654 159.269 58.2596C162.189 57.266 165.189 56.5264 168.235 56.049C169.76 55.8107 171.305 55.6382 172.87 55.5315C172.118 55.8231 171.36 56.1406 170.62 56.4723Z" fill="#111111"/>
<path d="M176.825 162.735C173.488 166.51 169.638 169.797 165.388 172.501C165.463 171.924 165.5 171.344 165.5 170.762C165.5 170.513 165.5 170.268 165.48 170.024C165.374 168.112 164.855 166.245 163.959 164.552C163.062 162.859 161.81 161.381 160.288 160.219C163.242 161.162 166.274 161.844 169.348 162.258C171.75 162.582 174.172 162.744 176.596 162.744L176.825 162.735Z" fill="#111111"/>
<path d="M211.428 139.609C211.431 142.613 210.76 145.579 209.462 148.289C208.165 150.998 206.276 153.381 203.934 155.262C203.425 155.565 202.908 155.857 202.39 156.143C200.777 157.029 199.12 157.831 197.424 158.545C197.061 158.7 196.692 158.848 196.323 158.994L195.806 159.197C195.061 159.367 194.307 159.493 193.547 159.575C192.82 159.653 192.088 159.692 191.357 159.692C190.213 159.694 189.071 159.598 187.943 159.406C186.806 159.214 185.689 158.921 184.604 158.531C183.447 158.123 182.33 157.608 181.267 156.995C180.406 156.495 179.584 155.93 178.808 155.305C176.245 153.25 174.224 150.599 172.919 147.584C172.484 146.584 172.133 145.549 171.869 144.49C170.752 140.015 171.204 135.291 173.15 131.11C173.818 131.213 174.493 131.265 175.169 131.264C178.383 131.261 181.488 130.093 183.907 127.974C186.325 125.856 187.893 122.932 188.321 119.745C188.792 119.674 189.27 119.62 189.75 119.58C190.276 119.54 190.805 119.52 191.34 119.52C191.809 119.52 192.275 119.537 192.735 119.568C196.48 119.822 200.077 121.127 203.113 123.334C203.531 123.634 203.936 123.951 204.329 124.287C208.157 127.526 210.631 132.083 211.265 137.058C211.371 137.904 211.426 138.756 211.428 139.609Z" fill="#111111"/>
<path d="M288.001 92.0093C278.009 101.679 264.647 107.079 250.744 107.065C249.234 107.065 247.74 107.003 246.26 106.879C240.637 106.417 235.121 105.066 229.921 102.876C228.632 102.333 227.368 101.741 226.127 101.1C225.418 100.734 224.714 100.351 224.025 99.9562C221.154 98.3039 218.441 96.3893 215.923 94.2369C215.785 94.1197 215.637 94.0024 215.514 93.8823C214.656 93.135 213.822 92.361 213.012 91.5603C204.327 82.9914 198.83 71.7112 197.433 59.5894C197.288 58.314 197.193 57.0262 197.147 55.726C197.121 55.1941 197.107 54.6622 197.101 54.1275C197.101 54.0846 197.101 54.0445 197.101 54.0045C197.101 53.8015 197.101 53.5984 197.101 53.3954C197.101 52.9178 197.101 52.4403 197.121 51.9656C197.172 49.9561 197.336 47.9512 197.613 45.9603C197.762 44.8794 197.944 43.8079 198.159 42.7461C198.785 39.6339 199.687 36.5839 200.855 33.6324C201.236 32.6544 201.651 31.6926 202.099 30.747C203.058 28.6863 204.15 26.69 205.367 24.7703C205.996 23.7694 206.658 22.7933 207.354 21.842C211.779 15.7499 217.437 10.657 223.958 6.89407C230.48 3.13111 237.72 0.782238 245.208 0C235.128 9.70597 229.253 22.9777 228.846 36.9667C228.846 37.2984 228.829 37.633 228.826 37.9676C228.826 38.1821 228.826 38.3994 228.826 38.6139C228.818 45.6638 230.201 52.646 232.894 59.1609C235.588 65.6758 239.539 71.5954 244.523 76.581C249.507 81.5666 255.424 85.5203 261.937 88.2157C268.45 90.9112 275.431 92.2955 282.48 92.2895C284.323 92.2903 286.166 92.1967 288.001 92.0093Z" fill="#111111"/>
<path d="M93.7931 159.492H93.7788C93.7856 159.503 93.7943 159.514 93.8046 159.523C93.7971 159.514 93.7931 159.503 93.7931 159.492ZM83.549 154.828C83.3002 154.716 83.0486 154.602 82.8027 154.484C83.2183 154.747 83.6376 155.005 84.0607 155.256C83.8835 155.116 83.7148 154.973 83.549 154.828Z" fill="#111111"/>
<path d="M116.738 139.61C116.739 141.256 116.539 142.897 116.14 144.494C115.877 145.553 115.526 146.588 115.091 147.588C113.785 150.604 111.762 153.255 109.198 155.309C107.492 156.678 105.573 157.758 103.517 158.506C102.514 158.876 101.482 159.163 100.432 159.364C98.2428 159.782 95.9996 159.834 93.7933 159.519H93.779C93.2529 159.444 92.7335 159.349 92.2208 159.233L91.7233 159.041C89.0713 157.989 86.508 156.726 84.058 155.264C83.8865 155.126 83.7178 154.978 83.552 154.838C81.3616 152.953 79.6045 150.618 78.4008 147.991C77.1972 145.364 76.5756 142.508 76.5786 139.618C76.5784 138.767 76.6318 137.916 76.7387 137.071C77.3341 132.39 79.5615 128.07 83.0288 124.871C83.618 124.324 84.2405 123.814 84.8929 123.344C88.3115 120.863 92.4285 119.529 96.6524 119.535C96.9783 119.535 97.3043 119.535 97.6273 119.558C97.8218 119.558 98.0133 119.581 98.1992 119.592C98.6909 119.632 99.1827 119.687 99.6659 119.761C100.092 122.948 101.66 125.872 104.079 127.991C106.498 130.109 109.603 131.278 112.818 131.28C113.495 131.281 114.17 131.229 114.839 131.125C115.132 131.75 115.392 132.389 115.617 133.041C116.354 135.153 116.733 137.373 116.738 139.61Z" fill="#111111"/>
<path d="M90.9337 53.3925C90.9337 53.6356 90.9337 53.8815 90.9337 54.1246C90.9337 54.1847 90.9337 54.2447 90.9337 54.3048C90.9337 54.7795 90.9137 55.2513 90.8908 55.7346C90.8375 57.0348 90.7374 58.3226 90.5906 59.598C90.0083 64.668 88.7028 69.6284 86.7137 74.328C83.9759 80.7834 80.0014 86.6404 75.0143 91.5689C74.2061 92.3696 73.3722 93.1436 72.5125 93.8909C72.3782 94.011 72.2266 94.1283 72.1037 94.2455C69.585 96.3978 66.8725 98.3124 64.001 99.9648C63.4292 100.291 62.8574 100.605 62.2855 100.908C60.9246 101.625 59.5294 102.285 58.0998 102.887C52.8542 105.092 47.2896 106.444 41.6171 106.891C40.1856 107.007 38.7389 107.065 37.277 107.065C23.3669 107.084 9.99638 101.684 0 92.0092C1.83233 92.1984 3.67314 92.2939 5.51521 92.2952C10.1114 92.2986 14.689 91.7123 19.136 90.5508C30.6117 87.5351 40.7654 80.8024 48.0108 71.4044C55.2561 62.0065 59.1849 50.4727 59.1834 38.6053C59.1834 38.3908 59.1834 38.1735 59.1834 37.959C59.1834 37.4729 59.1663 36.9896 59.1491 36.5034C58.6184 22.678 52.7551 9.59529 42.7893 0C50.283 0.775001 57.5296 3.11939 64.0575 6.88063C70.5854 10.6419 76.2485 15.7357 80.6781 21.8306C81.2385 22.5931 81.7779 23.3757 82.2964 24.1783C83.6605 26.2738 84.8748 28.4631 85.9303 30.7298C86.4564 31.8584 86.9443 33.0099 87.3942 34.1843C88.4586 36.9589 89.2878 39.8181 89.873 42.7318C90.0922 43.8241 90.2828 44.9289 90.4448 46.0461C90.7123 48.0042 90.8707 49.9756 90.9194 51.9513C90.9194 52.4288 90.9337 52.9035 90.9337 53.3925Z" fill="#111111"/>
<path d="M83.549 154.828C83.3002 154.716 83.0486 154.602 82.8027 154.484C83.2183 154.747 83.6376 155.005 84.0607 155.256C83.8835 155.116 83.7148 154.973 83.549 154.828ZM93.7931 159.492H93.7788C93.7856 159.503 93.7943 159.514 93.8046 159.523C93.7971 159.514 93.7931 159.503 93.7931 159.492Z" fill="#111111"/>
<path d="M122.522 170.026C122.522 170.269 122.502 170.515 122.502 170.764C122.501 171.49 122.561 172.215 122.679 172.931C118.154 170.149 114.066 166.711 110.548 162.731C110.834 162.731 111.12 162.731 111.406 162.731C113.831 162.732 116.253 162.569 118.656 162.245C121.731 161.831 124.764 161.148 127.72 160.203C126.197 161.365 124.943 162.843 124.046 164.536C123.149 166.229 122.629 168.096 122.522 170.009V170.026Z" fill="#111111"/>
<path d="M83.549 154.828C83.3002 154.716 83.0486 154.602 82.8027 154.484C83.2183 154.747 83.6376 155.005 84.0607 155.256C83.8835 155.116 83.7148 154.973 83.549 154.828Z" fill="#111111"/>
<path d="M221.964 137.741C217.418 144.92 211.241 150.924 203.935 155.262C206.277 153.381 208.166 150.998 209.463 148.288C210.76 145.579 211.432 142.612 211.429 139.608C211.428 138.757 211.376 137.907 211.271 137.063C210.638 132.088 208.163 127.531 204.335 124.292C203.944 123.958 203.539 123.641 203.12 123.34C200.084 121.132 196.486 119.827 192.741 119.573C192.281 119.542 191.815 119.525 191.346 119.525C190.812 119.525 190.283 119.545 189.757 119.585C189.276 119.625 188.799 119.679 188.327 119.751C188.61 117.638 188.379 115.487 187.656 113.482C186.932 111.477 185.737 109.675 184.17 108.229C182.857 107.018 181.313 106.083 179.63 105.483C177.947 104.883 176.16 104.628 174.377 104.735C172.594 104.842 170.85 105.308 169.251 106.105C167.652 106.902 166.23 108.013 165.071 109.373C164.755 109.742 164.46 110.129 164.188 110.531C163.947 110.882 163.725 111.244 163.521 111.618C162.215 114.001 161.672 116.729 161.965 119.431C162.258 122.133 163.373 124.68 165.16 126.728L165.308 126.897C166.043 127.71 166.876 128.43 167.787 129.039C169.056 129.892 170.464 130.516 171.947 130.883C172.342 130.984 172.742 131.064 173.145 131.124C171.203 135.306 170.75 140.028 171.864 144.504C172.128 145.563 172.479 146.597 172.914 147.598C174.219 150.613 176.24 153.264 178.803 155.319C179.581 155.939 180.405 156.5 181.268 156.995C182.327 157.61 183.44 158.127 184.593 158.539C185.678 158.929 186.796 159.222 187.932 159.414C189.06 159.607 190.202 159.702 191.346 159.7C192.078 159.7 192.809 159.661 193.536 159.583C194.296 159.501 195.05 159.375 195.795 159.205C194.907 159.545 194.007 159.861 193.096 160.155C190.603 160.96 188.055 161.581 185.471 162.014C182.613 162.487 179.722 162.729 176.825 162.74H176.593C174.169 162.74 171.748 162.578 169.345 162.254C166.272 161.84 163.24 161.158 160.285 160.215C158.613 159.683 156.979 159.072 155.382 158.382C154.764 158.115 154.153 157.837 153.549 157.55C153.129 157.352 152.714 157.146 152.299 156.938C149.383 155.45 146.608 153.701 144.008 151.71C144.689 151.188 145.356 150.65 146.009 150.097C147.096 149.182 148.144 148.229 149.154 147.238C149.783 146.616 150.396 145.98 150.993 145.33C151.891 144.349 152.748 143.335 153.566 142.291C153.718 142.102 153.852 141.91 154.012 141.719C154.877 140.575 155.701 139.406 156.482 138.213C155.047 139.086 153.568 139.891 152.045 140.629C149.772 141.733 147.424 142.674 145.017 143.443C144.68 143.552 144.337 143.657 143.994 143.758L143.808 143.703C141.071 142.878 138.406 141.834 135.837 140.58C134.354 139.858 132.909 139.069 131.502 138.213C132.28 139.416 133.103 140.584 133.973 141.719C134.096 141.882 134.224 142.047 134.353 142.21C135.195 143.284 136.078 144.324 137 145.33C137.763 146.154 138.541 146.953 139.336 147.727C140.192 148.55 141.073 149.345 141.978 150.112C142.634 150.663 143.301 151.2 143.979 151.725C141.443 153.667 138.738 155.379 135.897 156.84C135.414 157.089 134.928 157.332 134.436 157.564C134.028 157.755 133.616 157.945 133.201 158.136C128.572 160.192 123.673 161.579 118.654 162.254C116.25 162.578 113.828 162.74 111.403 162.74C111.117 162.74 110.831 162.74 110.545 162.74C108.457 162.709 106.372 162.557 104.301 162.282C100.818 161.82 97.3896 161.015 94.0653 159.877L93.8766 159.812C93.3048 159.62 92.7615 159.414 92.2126 159.205C92.7234 159.324 93.2428 159.419 93.7708 159.491C93.7776 159.503 93.7863 159.514 93.7965 159.523C93.7937 159.513 93.7937 159.503 93.7965 159.494C96.0028 159.809 98.2461 159.757 100.435 159.34C101.485 159.139 102.517 158.852 103.52 158.482C105.576 157.734 107.495 156.654 109.201 155.285C111.766 153.23 113.789 150.58 115.094 147.564C115.529 146.563 115.88 145.528 116.143 144.47C117.086 140.68 116.91 136.697 115.637 133.005C115.412 132.353 115.153 131.714 114.86 131.089C115.264 131.03 115.664 130.949 116.06 130.849C117.543 130.479 118.951 129.855 120.22 129.005C121.131 128.394 121.964 127.673 122.699 126.86C122.845 126.697 122.985 126.531 123.125 126.362C124.797 124.315 125.82 121.815 126.063 119.182C126.305 116.55 125.756 113.905 124.486 111.586C124.352 111.335 124.2 111.089 124.052 110.849C123.716 110.321 123.344 109.819 122.937 109.344C121.32 107.449 119.203 106.048 116.827 105.301C114.902 104.695 112.866 104.536 110.871 104.835C108.876 105.134 106.975 105.884 105.313 107.028C103.651 108.171 102.272 109.679 101.28 111.435C100.287 113.192 99.7081 115.152 99.5862 117.166C99.5691 117.431 99.5605 117.699 99.5605 117.972C99.5604 118.561 99.5996 119.15 99.6777 119.734C99.1945 119.659 98.7027 119.605 98.211 119.565C98.0166 119.565 97.825 119.539 97.6392 119.531C97.3161 119.516 96.9901 119.508 96.6642 119.508C92.4361 119.5 88.3147 120.835 84.8933 123.32C84.2409 123.79 83.6184 124.3 83.0291 124.847C79.5619 128.046 77.3345 132.366 76.7391 137.046C76.6322 137.891 76.5787 138.742 76.579 139.594C76.576 142.483 77.1976 145.34 78.4012 147.966C79.6048 150.593 81.362 152.929 83.5524 154.813C83.3036 154.701 83.052 154.587 82.8061 154.47C76.0486 150.205 70.3237 144.491 66.0461 137.741C66.4205 133.282 67.3532 128.887 68.8223 124.661C68.9995 124.16 69.1797 123.66 69.3684 123.168C71.302 118.111 73.9905 113.376 77.3424 109.124C77.4253 109.016 77.5111 108.91 77.5969 108.804C81.9387 103.374 87.2915 98.837 93.3591 95.4437C99.4265 92.0462 106.1 89.87 113.004 89.0381C114.822 88.8133 116.65 88.6834 118.482 88.6492C118.822 88.6492 119.162 88.6492 119.506 88.6492C121.93 88.6487 124.351 88.8111 126.753 89.1353C127.76 89.2707 128.759 89.4347 129.75 89.6272C130.545 89.7778 131.333 89.9484 132.114 90.1391C132.443 90.2192 132.769 90.2992 133.095 90.385C134.719 90.8082 136.31 91.3049 137.87 91.8749C138.733 92.1895 139.584 92.524 140.423 92.8786C141.639 93.3972 142.832 93.9558 144.002 94.5544C145.129 93.9825 146.278 93.4429 147.45 92.9358C148.573 92.4554 149.717 92.0131 150.881 91.6089C152.286 91.1209 153.716 90.691 155.17 90.3192C155.742 90.1705 156.323 90.0323 156.914 89.9046C157.36 89.8045 157.809 89.713 158.258 89.6186C159.247 89.428 160.246 89.264 161.254 89.1268C163.657 88.8025 166.078 88.6401 168.502 88.6406C168.845 88.6406 169.185 88.6406 169.526 88.6406C171.138 88.6692 172.733 88.7693 174.309 88.9409C181.061 89.6639 187.612 91.6712 193.611 94.8546C200.106 98.3019 205.826 103.043 210.419 108.787C210.505 108.893 210.591 108.998 210.674 109.107C214.026 113.359 216.715 118.095 218.648 123.154C218.838 123.646 219.02 124.142 219.194 124.644C220.662 128.876 221.593 133.276 221.964 137.741Z" fill="#111111"/>
</svg>
