<svg width="72" height="44" viewBox="0 0 72 44" fill="none" xmlns="http://www.w3.org/2000/svg">
<path d="M23.2794 40.582H23.276C23.2776 40.585 23.2797 40.5877 23.2821 40.5899C23.2803 40.5877 23.2794 40.5849 23.2794 40.582Z" fill="#E0B43D"/>
<path d="M23.2794 40.582H23.276C23.2776 40.585 23.2797 40.5877 23.2821 40.5899C23.2803 40.5877 23.2794 40.5849 23.2794 40.582Z" fill="#F5F5B8"/>
<path d="M23.2794 40.582H23.276C23.2776 40.585 23.2797 40.5877 23.2821 40.5899C23.2803 40.5877 23.2794 40.5849 23.2794 40.582Z" fill="#FFE49D"/>
<path d="M23.2792 40.5789H23.2757C23.2774 40.5819 23.2795 40.5846 23.2821 40.5869C23.2802 40.5847 23.2792 40.5819 23.2792 40.5789ZM20.7366 39.392C20.6749 39.3636 20.6124 39.3345 20.5514 39.3047C20.6545 39.3716 20.7586 39.4371 20.8636 39.5012C20.8196 39.4655 20.7778 39.4291 20.7366 39.392Z" fill="#E0B43D"/>
<path d="M23.2792 40.5789H23.2757C23.2774 40.5819 23.2795 40.5846 23.2821 40.5869C23.2802 40.5847 23.2792 40.5819 23.2792 40.5789ZM20.7366 39.392C20.6749 39.3636 20.6124 39.3345 20.5514 39.3047C20.6545 39.3716 20.7586 39.4371 20.8636 39.5012C20.8196 39.4655 20.7778 39.4291 20.7366 39.392Z" fill="#F5F5B8"/>
<path d="M23.2792 40.5789H23.2757C23.2774 40.5819 23.2795 40.5846 23.2821 40.5869C23.2802 40.5847 23.2792 40.5819 23.2792 40.5789ZM20.7366 39.392C20.6749 39.3636 20.6124 39.3345 20.5514 39.3047C20.6545 39.3716 20.7586 39.4371 20.8636 39.5012C20.8196 39.4655 20.7778 39.4291 20.7366 39.392Z" fill="#FFE49D"/>
<path d="M57.0628 26.1748C56.743 26.0366 56.4291 25.886 56.1212 25.723C55.9452 25.6299 55.7706 25.5324 55.5996 25.432C54.8869 25.0115 54.2136 24.5244 53.5885 23.9768C53.5544 23.9469 53.5175 23.9171 53.487 23.8865C53.2741 23.6964 53.0671 23.4994 52.8661 23.2957C50.7103 21.1155 49.346 18.2453 48.9993 15.1611C48.9633 14.8366 48.9396 14.5089 48.9283 14.1781C48.9219 14.0428 48.9184 13.9074 48.9169 13.7714C48.9169 13.7605 48.9169 13.7503 48.9169 13.7401C48.9169 13.6884 48.9169 13.6368 48.9169 13.5851C48.9169 13.4636 48.9169 13.3421 48.9219 13.2213C48.9345 12.71 48.9752 12.1999 49.044 11.6933C49.0809 11.4183 49.126 11.1457 49.1795 10.8755C49.3348 10.0837 49.5587 9.30764 49.8487 8.55665C49.9433 8.30781 50.0462 8.06309 50.1574 7.8225C49.4638 8.689 48.611 9.40741 47.6474 9.93691C47.2161 10.1754 46.7649 10.3739 46.2991 10.5299C45.7811 10.7022 45.2477 10.8211 44.7067 10.885L44.5534 10.8202C42.9733 10.1624 41.2842 9.82341 39.5788 9.82195H39.5483C38.2592 9.82073 36.9767 10.0117 35.7411 10.3888C34.5053 10.0116 33.2226 9.82068 31.9332 9.82195H31.9027C30.7749 9.82372 29.6518 9.97212 28.5603 10.2636C28.0051 10.4116 27.4598 10.5968 26.9282 10.818L26.7742 10.8828C26.2365 10.8184 25.7065 10.6994 25.1917 10.5277C24.7347 10.3755 24.2916 10.1824 23.8675 9.95074C22.8928 9.41926 22.0303 8.6952 21.3299 7.82031C21.4604 8.10747 21.5816 8.40046 21.6932 8.69926C21.9574 9.40522 22.1632 10.1327 22.3085 10.8741C22.3629 11.152 22.4102 11.4331 22.4504 11.7174C22.516 12.2149 22.5546 12.7158 22.5661 13.2177C22.5661 13.3392 22.571 13.4614 22.571 13.5815C22.571 13.6433 22.571 13.7059 22.571 13.7677C22.571 13.783 22.571 13.7983 22.571 13.8136C22.571 13.9344 22.5661 14.0544 22.5604 14.1774C22.5471 14.5082 22.5223 14.8359 22.4859 15.1604C22.3413 16.4504 22.0173 17.7125 21.5236 18.9083C20.8441 20.5508 19.8576 22.041 18.6198 23.295C18.4192 23.4987 18.2122 23.6957 17.9988 23.8858C17.9655 23.9164 17.9279 23.9462 17.8974 23.976C17.2722 24.5237 16.599 25.0108 15.8863 25.4312C15.7443 25.5142 15.6024 25.5942 15.4605 25.6713C15.1227 25.8537 14.7764 26.0216 14.4216 26.1748C14.291 27.3477 14.307 28.5328 14.4691 29.7015C14.7337 31.6025 15.3892 33.4242 16.3922 35.0458C16.4852 33.9112 16.7167 32.7931 17.0813 31.7177C17.1253 31.5904 17.17 31.4631 17.2168 31.3379C17.6967 30.0512 18.364 28.8464 19.196 27.7647C19.2166 27.737 19.2379 27.7101 19.2592 27.6832C20.3368 26.3016 21.6654 25.1472 23.1714 24.2838C24.6773 23.4193 26.3338 22.8656 28.0473 22.654C28.4985 22.5968 28.9523 22.5637 29.4069 22.555C29.4914 22.555 29.5758 22.555 29.661 22.555C30.2627 22.5549 30.8637 22.5962 31.4599 22.6787C31.7097 22.7132 31.9576 22.7549 32.2036 22.8039C32.4009 22.8422 32.5965 22.8856 32.7905 22.9341C32.8721 22.9545 32.953 22.9748 33.0339 22.9967C33.437 23.1044 33.832 23.2307 34.219 23.3758C34.4333 23.4558 34.6445 23.5409 34.8527 23.6311C35.1545 23.7631 35.4507 23.9052 35.7411 24.0575C36.0207 23.912 36.306 23.7747 36.597 23.6457C36.8756 23.5235 37.1595 23.4109 37.4485 23.3081C37.7972 23.1839 38.152 23.0745 38.513 22.9799C38.6549 22.9421 38.7992 22.9069 38.9459 22.8744C39.0566 22.849 39.168 22.8257 39.2794 22.8017C39.5249 22.7532 39.7728 22.7115 40.0231 22.6765C40.6193 22.594 41.2203 22.5527 41.822 22.5528C41.9072 22.5528 41.9916 22.5528 42.0761 22.5528C42.4763 22.5601 42.872 22.5856 43.2633 22.6292C44.9391 22.8132 46.5652 23.3239 48.054 24.1339C49.6662 25.011 51.086 26.2175 52.226 27.6788C52.2473 27.7057 52.2685 27.7326 52.2891 27.7603C53.1212 28.8422 53.7885 30.0473 54.2683 31.3343C54.3156 31.4594 54.3608 31.5858 54.4038 31.7134C54.7685 32.7888 55 33.9069 55.0929 35.0414C56.1549 33.3247 56.8267 31.3851 57.0586 29.3661C57.1806 28.304 57.1825 27.2309 57.0643 26.1683L57.0628 26.1748ZM42.3478 14.368C42.2308 14.4226 42.1144 14.4779 41.9994 14.5354C40.8734 15.0958 39.83 15.8159 38.8997 16.6745C38.8401 16.7291 38.7812 16.7844 38.7223 16.8404C38.2244 17.3166 37.7628 17.831 37.3414 18.3793C37.2591 18.4863 37.1774 18.5976 37.0987 18.7053C37.0568 18.7627 37.0156 18.8202 36.9759 18.8784C36.9362 18.9366 36.9049 18.9847 36.8652 19.0385C36.7446 19.2153 36.6282 19.3965 36.5161 19.5798C36.3614 19.8316 36.2152 20.0892 36.0768 20.3526C35.9529 20.5883 35.8346 20.8282 35.722 21.0722C35.6212 20.85 35.5148 20.6317 35.4026 20.4173C35.2323 20.0884 35.0492 19.7681 34.8534 19.4562C34.7782 19.3354 34.7008 19.2168 34.6228 19.0996L34.5653 19.0152C34.4943 18.9119 34.4234 18.81 34.3524 18.7096C34.2814 18.6092 34.2005 18.5015 34.1225 18.3997C33.7103 17.8613 33.2597 17.3552 32.7742 16.8855C32.7067 16.82 32.6386 16.756 32.5691 16.692C31.6402 15.8332 30.5982 15.1126 29.4736 14.5514C29.3502 14.4893 29.2255 14.4294 29.0997 14.3717C28.9133 14.2858 28.724 14.2043 28.532 14.1272C28.935 14.1543 29.3329 14.1992 29.7256 14.2618C30.4809 14.3831 31.2245 14.5712 31.9481 14.8242C32.0276 14.8519 32.1064 14.8803 32.1852 14.9094H32.1894C32.579 15.0549 32.9551 15.2157 33.3248 15.3954C33.4521 15.457 33.5782 15.5205 33.7031 15.586C34.4184 15.9615 35.0994 16.4022 35.7376 16.903C36.7674 16.0943 37.9071 15.4444 39.1204 14.9741C39.1791 14.9508 39.2387 14.9283 39.2993 14.9064C39.3759 14.8781 39.4532 14.8497 39.5306 14.8228C40.2552 14.57 40.9998 14.3818 41.756 14.2603C42.1345 14.1997 42.5179 14.1558 42.9063 14.1286C42.7197 14.2029 42.5316 14.2836 42.3478 14.368Z" fill="#E0B43D"/>
<path d="M57.0628 26.1748C56.743 26.0366 56.4291 25.886 56.1212 25.723C55.9452 25.6299 55.7706 25.5324 55.5996 25.432C54.8869 25.0115 54.2136 24.5244 53.5885 23.9768C53.5544 23.9469 53.5175 23.9171 53.487 23.8865C53.2741 23.6964 53.0671 23.4994 52.8661 23.2957C50.7103 21.1155 49.346 18.2453 48.9993 15.1611C48.9633 14.8366 48.9396 14.5089 48.9283 14.1781C48.9219 14.0428 48.9184 13.9074 48.9169 13.7714C48.9169 13.7605 48.9169 13.7503 48.9169 13.7401C48.9169 13.6884 48.9169 13.6368 48.9169 13.5851C48.9169 13.4636 48.9169 13.3421 48.9219 13.2213C48.9345 12.71 48.9752 12.1999 49.044 11.6933C49.0809 11.4183 49.126 11.1457 49.1795 10.8755C49.3348 10.0837 49.5587 9.30764 49.8487 8.55665C49.9433 8.30781 50.0462 8.06309 50.1574 7.8225C49.4638 8.689 48.611 9.40741 47.6474 9.93691C47.2161 10.1754 46.7649 10.3739 46.2991 10.5299C45.7811 10.7022 45.2477 10.8211 44.7067 10.885L44.5534 10.8202C42.9733 10.1624 41.2842 9.82341 39.5788 9.82195H39.5483C38.2592 9.82073 36.9767 10.0117 35.7411 10.3888C34.5053 10.0116 33.2226 9.82068 31.9332 9.82195H31.9027C30.7749 9.82372 29.6518 9.97212 28.5603 10.2636C28.0051 10.4116 27.4598 10.5968 26.9282 10.818L26.7742 10.8828C26.2365 10.8184 25.7065 10.6994 25.1917 10.5277C24.7347 10.3755 24.2916 10.1824 23.8675 9.95074C22.8928 9.41926 22.0303 8.6952 21.3299 7.82031C21.4604 8.10747 21.5816 8.40046 21.6932 8.69926C21.9574 9.40522 22.1632 10.1327 22.3085 10.8741C22.3629 11.152 22.4102 11.4331 22.4504 11.7174C22.516 12.2149 22.5546 12.7158 22.5661 13.2177C22.5661 13.3392 22.571 13.4614 22.571 13.5815C22.571 13.6433 22.571 13.7059 22.571 13.7677C22.571 13.783 22.571 13.7983 22.571 13.8136C22.571 13.9344 22.5661 14.0544 22.5604 14.1774C22.5471 14.5082 22.5223 14.8359 22.4859 15.1604C22.3413 16.4504 22.0173 17.7125 21.5236 18.9083C20.8441 20.5508 19.8576 22.041 18.6198 23.295C18.4192 23.4987 18.2122 23.6957 17.9988 23.8858C17.9655 23.9164 17.9279 23.9462 17.8974 23.976C17.2722 24.5237 16.599 25.0108 15.8863 25.4312C15.7443 25.5142 15.6024 25.5942 15.4605 25.6713C15.1227 25.8537 14.7764 26.0216 14.4216 26.1748C14.291 27.3477 14.307 28.5328 14.4691 29.7015C14.7337 31.6025 15.3892 33.4242 16.3922 35.0458C16.4852 33.9112 16.7167 32.7931 17.0813 31.7177C17.1253 31.5904 17.17 31.4631 17.2168 31.3379C17.6967 30.0512 18.364 28.8464 19.196 27.7647C19.2166 27.737 19.2379 27.7101 19.2592 27.6832C20.3368 26.3016 21.6654 25.1472 23.1714 24.2838C24.6773 23.4193 26.3338 22.8656 28.0473 22.654C28.4985 22.5968 28.9523 22.5637 29.4069 22.555C29.4914 22.555 29.5758 22.555 29.661 22.555C30.2627 22.5549 30.8637 22.5962 31.4599 22.6787C31.7097 22.7132 31.9576 22.7549 32.2036 22.8039C32.4009 22.8422 32.5965 22.8856 32.7905 22.9341C32.8721 22.9545 32.953 22.9748 33.0339 22.9967C33.437 23.1044 33.832 23.2307 34.219 23.3758C34.4333 23.4558 34.6445 23.5409 34.8527 23.6311C35.1545 23.7631 35.4507 23.9052 35.7411 24.0575C36.0207 23.912 36.306 23.7747 36.597 23.6457C36.8756 23.5235 37.1595 23.4109 37.4485 23.3081C37.7972 23.1839 38.152 23.0745 38.513 22.9799C38.6549 22.9421 38.7992 22.9069 38.9459 22.8744C39.0566 22.849 39.168 22.8257 39.2794 22.8017C39.5249 22.7532 39.7728 22.7115 40.0231 22.6765C40.6193 22.594 41.2203 22.5527 41.822 22.5528C41.9072 22.5528 41.9916 22.5528 42.0761 22.5528C42.4763 22.5601 42.872 22.5856 43.2633 22.6292C44.9391 22.8132 46.5652 23.3239 48.054 24.1339C49.6662 25.011 51.086 26.2175 52.226 27.6788C52.2473 27.7057 52.2685 27.7326 52.2891 27.7603C53.1212 28.8422 53.7885 30.0473 54.2683 31.3343C54.3156 31.4594 54.3608 31.5858 54.4038 31.7134C54.7685 32.7888 55 33.9069 55.0929 35.0414C56.1549 33.3247 56.8267 31.3851 57.0586 29.3661C57.1806 28.304 57.1825 27.2309 57.0643 26.1683L57.0628 26.1748ZM42.3478 14.368C42.2308 14.4226 42.1144 14.4779 41.9994 14.5354C40.8734 15.0958 39.83 15.8159 38.8997 16.6745C38.8401 16.7291 38.7812 16.7844 38.7223 16.8404C38.2244 17.3166 37.7628 17.831 37.3414 18.3793C37.2591 18.4863 37.1774 18.5976 37.0987 18.7053C37.0568 18.7627 37.0156 18.8202 36.9759 18.8784C36.9362 18.9366 36.9049 18.9847 36.8652 19.0385C36.7446 19.2153 36.6282 19.3965 36.5161 19.5798C36.3614 19.8316 36.2152 20.0892 36.0768 20.3526C35.9529 20.5883 35.8346 20.8282 35.722 21.0722C35.6212 20.85 35.5148 20.6317 35.4026 20.4173C35.2323 20.0884 35.0492 19.7681 34.8534 19.4562C34.7782 19.3354 34.7008 19.2168 34.6228 19.0996L34.5653 19.0152C34.4943 18.9119 34.4234 18.81 34.3524 18.7096C34.2814 18.6092 34.2005 18.5015 34.1225 18.3997C33.7103 17.8613 33.2597 17.3552 32.7742 16.8855C32.7067 16.82 32.6386 16.756 32.5691 16.692C31.6402 15.8332 30.5982 15.1126 29.4736 14.5514C29.3502 14.4893 29.2255 14.4294 29.0997 14.3717C28.9133 14.2858 28.724 14.2043 28.532 14.1272C28.935 14.1543 29.3329 14.1992 29.7256 14.2618C30.4809 14.3831 31.2245 14.5712 31.9481 14.8242C32.0276 14.8519 32.1064 14.8803 32.1852 14.9094H32.1894C32.579 15.0549 32.9551 15.2157 33.3248 15.3954C33.4521 15.457 33.5782 15.5205 33.7031 15.586C34.4184 15.9615 35.0994 16.4022 35.7376 16.903C36.7674 16.0943 37.9071 15.4444 39.1204 14.9741C39.1791 14.9508 39.2387 14.9283 39.2993 14.9064C39.3759 14.8781 39.4532 14.8497 39.5306 14.8228C40.2552 14.57 40.9998 14.3818 41.756 14.2603C42.1345 14.1997 42.5179 14.1558 42.9063 14.1286C42.7197 14.2029 42.5316 14.2836 42.3478 14.368Z" fill="#F5F5B8"/>
<path d="M57.0628 26.1748C56.743 26.0366 56.4291 25.886 56.1212 25.723C55.9452 25.6299 55.7706 25.5324 55.5996 25.432C54.8869 25.0115 54.2136 24.5244 53.5885 23.9768C53.5544 23.9469 53.5175 23.9171 53.487 23.8865C53.2741 23.6964 53.0671 23.4994 52.8661 23.2957C50.7103 21.1155 49.346 18.2453 48.9993 15.1611C48.9633 14.8366 48.9396 14.5089 48.9283 14.1781C48.9219 14.0428 48.9184 13.9074 48.9169 13.7714C48.9169 13.7605 48.9169 13.7503 48.9169 13.7401C48.9169 13.6884 48.9169 13.6368 48.9169 13.5851C48.9169 13.4636 48.9169 13.3421 48.9219 13.2213C48.9345 12.71 48.9752 12.1999 49.044 11.6933C49.0809 11.4183 49.126 11.1457 49.1795 10.8755C49.3348 10.0837 49.5587 9.30764 49.8487 8.55665C49.9433 8.30781 50.0462 8.06309 50.1574 7.8225C49.4638 8.689 48.611 9.40741 47.6474 9.93691C47.2161 10.1754 46.7649 10.3739 46.2991 10.5299C45.7811 10.7022 45.2477 10.8211 44.7067 10.885L44.5534 10.8202C42.9733 10.1624 41.2842 9.82341 39.5788 9.82195H39.5483C38.2592 9.82073 36.9767 10.0117 35.7411 10.3888C34.5053 10.0116 33.2226 9.82068 31.9332 9.82195H31.9027C30.7749 9.82372 29.6518 9.97212 28.5603 10.2636C28.0051 10.4116 27.4598 10.5968 26.9282 10.818L26.7742 10.8828C26.2365 10.8184 25.7065 10.6994 25.1917 10.5277C24.7347 10.3755 24.2916 10.1824 23.8675 9.95074C22.8928 9.41926 22.0303 8.6952 21.3299 7.82031C21.4604 8.10747 21.5816 8.40046 21.6932 8.69926C21.9574 9.40522 22.1632 10.1327 22.3085 10.8741C22.3629 11.152 22.4102 11.4331 22.4504 11.7174C22.516 12.2149 22.5546 12.7158 22.5661 13.2177C22.5661 13.3392 22.571 13.4614 22.571 13.5815C22.571 13.6433 22.571 13.7059 22.571 13.7677C22.571 13.783 22.571 13.7983 22.571 13.8136C22.571 13.9344 22.5661 14.0544 22.5604 14.1774C22.5471 14.5082 22.5223 14.8359 22.4859 15.1604C22.3413 16.4504 22.0173 17.7125 21.5236 18.9083C20.8441 20.5508 19.8576 22.041 18.6198 23.295C18.4192 23.4987 18.2122 23.6957 17.9988 23.8858C17.9655 23.9164 17.9279 23.9462 17.8974 23.976C17.2722 24.5237 16.599 25.0108 15.8863 25.4312C15.7443 25.5142 15.6024 25.5942 15.4605 25.6713C15.1227 25.8537 14.7764 26.0216 14.4216 26.1748C14.291 27.3477 14.307 28.5328 14.4691 29.7015C14.7337 31.6025 15.3892 33.4242 16.3922 35.0458C16.4852 33.9112 16.7167 32.7931 17.0813 31.7177C17.1253 31.5904 17.17 31.4631 17.2168 31.3379C17.6967 30.0512 18.364 28.8464 19.196 27.7647C19.2166 27.737 19.2379 27.7101 19.2592 27.6832C20.3368 26.3016 21.6654 25.1472 23.1714 24.2838C24.6773 23.4193 26.3338 22.8656 28.0473 22.654C28.4985 22.5968 28.9523 22.5637 29.4069 22.555C29.4914 22.555 29.5758 22.555 29.661 22.555C30.2627 22.5549 30.8637 22.5962 31.4599 22.6787C31.7097 22.7132 31.9576 22.7549 32.2036 22.8039C32.4009 22.8422 32.5965 22.8856 32.7905 22.9341C32.8721 22.9545 32.953 22.9748 33.0339 22.9967C33.437 23.1044 33.832 23.2307 34.219 23.3758C34.4333 23.4558 34.6445 23.5409 34.8527 23.6311C35.1545 23.7631 35.4507 23.9052 35.7411 24.0575C36.0207 23.912 36.306 23.7747 36.597 23.6457C36.8756 23.5235 37.1595 23.4109 37.4485 23.3081C37.7972 23.1839 38.152 23.0745 38.513 22.9799C38.6549 22.9421 38.7992 22.9069 38.9459 22.8744C39.0566 22.849 39.168 22.8257 39.2794 22.8017C39.5249 22.7532 39.7728 22.7115 40.0231 22.6765C40.6193 22.594 41.2203 22.5527 41.822 22.5528C41.9072 22.5528 41.9916 22.5528 42.0761 22.5528C42.4763 22.5601 42.872 22.5856 43.2633 22.6292C44.9391 22.8132 46.5652 23.3239 48.054 24.1339C49.6662 25.011 51.086 26.2175 52.226 27.6788C52.2473 27.7057 52.2685 27.7326 52.2891 27.7603C53.1212 28.8422 53.7885 30.0473 54.2683 31.3343C54.3156 31.4594 54.3608 31.5858 54.4038 31.7134C54.7685 32.7888 55 33.9069 55.0929 35.0414C56.1549 33.3247 56.8267 31.3851 57.0586 29.3661C57.1806 28.304 57.1825 27.2309 57.0643 26.1683L57.0628 26.1748ZM42.3478 14.368C42.2308 14.4226 42.1144 14.4779 41.9994 14.5354C40.8734 15.0958 39.83 15.8159 38.8997 16.6745C38.8401 16.7291 38.7812 16.7844 38.7223 16.8404C38.2244 17.3166 37.7628 17.831 37.3414 18.3793C37.2591 18.4863 37.1774 18.5976 37.0987 18.7053C37.0568 18.7627 37.0156 18.8202 36.9759 18.8784C36.9362 18.9366 36.9049 18.9847 36.8652 19.0385C36.7446 19.2153 36.6282 19.3965 36.5161 19.5798C36.3614 19.8316 36.2152 20.0892 36.0768 20.3526C35.9529 20.5883 35.8346 20.8282 35.722 21.0722C35.6212 20.85 35.5148 20.6317 35.4026 20.4173C35.2323 20.0884 35.0492 19.7681 34.8534 19.4562C34.7782 19.3354 34.7008 19.2168 34.6228 19.0996L34.5653 19.0152C34.4943 18.9119 34.4234 18.81 34.3524 18.7096C34.2814 18.6092 34.2005 18.5015 34.1225 18.3997C33.7103 17.8613 33.2597 17.3552 32.7742 16.8855C32.7067 16.82 32.6386 16.756 32.5691 16.692C31.6402 15.8332 30.5982 15.1126 29.4736 14.5514C29.3502 14.4893 29.2255 14.4294 29.0997 14.3717C28.9133 14.2858 28.724 14.2043 28.532 14.1272C28.935 14.1543 29.3329 14.1992 29.7256 14.2618C30.4809 14.3831 31.2245 14.5712 31.9481 14.8242C32.0276 14.8519 32.1064 14.8803 32.1852 14.9094H32.1894C32.579 15.0549 32.9551 15.2157 33.3248 15.3954C33.4521 15.457 33.5782 15.5205 33.7031 15.586C34.4184 15.9615 35.0994 16.4022 35.7376 16.903C36.7674 16.0943 37.9071 15.4444 39.1204 14.9741C39.1791 14.9508 39.2387 14.9283 39.2993 14.9064C39.3759 14.8781 39.4532 14.8497 39.5306 14.8228C40.2552 14.57 40.9998 14.3818 41.756 14.2603C42.1345 14.1997 42.5179 14.1558 42.9063 14.1286C42.7197 14.2029 42.5316 14.2836 42.3478 14.368Z" fill="#FFE49D"/>
<path d="M43.888 41.4059C43.0598 42.3663 42.1043 43.2027 41.0494 43.8907C41.068 43.744 41.0772 43.5962 41.0771 43.4483C41.0771 43.385 41.0771 43.3224 41.0721 43.2606C41.0459 42.7739 40.9171 42.2989 40.6946 41.8682C40.4722 41.4375 40.1613 41.0613 39.7834 40.7656C40.5169 41.0055 41.2693 41.1791 42.0323 41.2844C42.6285 41.3669 43.2295 41.4082 43.8312 41.4081L43.888 41.4059Z" fill="#E0B43D"/>
<path d="M43.888 41.4059C43.0598 42.3663 42.1043 43.2027 41.0494 43.8907C41.068 43.744 41.0772 43.5962 41.0771 43.4483C41.0771 43.385 41.0771 43.3224 41.0721 43.2606C41.0459 42.7739 40.9171 42.2989 40.6946 41.8682C40.4722 41.4375 40.1613 41.0613 39.7834 40.7656C40.5169 41.0055 41.2693 41.1791 42.0323 41.2844C42.6285 41.3669 43.2295 41.4082 43.8312 41.4081L43.888 41.4059Z" fill="#F5F5B8"/>
<path d="M43.888 41.4059C43.0598 42.3663 42.1043 43.2027 41.0494 43.8907C41.068 43.744 41.0772 43.5962 41.0771 43.4483C41.0771 43.385 41.0771 43.3224 41.0721 43.2606C41.0459 42.7739 40.9171 42.2989 40.6946 41.8682C40.4722 41.4375 40.1613 41.0613 39.7834 40.7656C40.5169 41.0055 41.2693 41.1791 42.0323 41.2844C42.6285 41.3669 43.2295 41.4082 43.8312 41.4081L43.888 41.4059Z" fill="#FFE49D"/>
<path d="M52.4769 35.5216C52.4777 36.2859 52.311 37.0407 51.9891 37.7301C51.6671 38.4195 51.1982 39.0259 50.6169 39.5045C50.4906 39.5816 50.3622 39.6558 50.2337 39.7286C49.8334 39.954 49.422 40.158 49.0011 40.3398C48.911 40.3791 48.8194 40.4169 48.7279 40.454L48.5994 40.5057C48.4145 40.5489 48.2274 40.5809 48.0388 40.6017C47.8583 40.6216 47.6768 40.6315 47.4952 40.6315C47.2113 40.6321 46.9278 40.6078 46.6479 40.5588C46.3658 40.5099 46.0884 40.4354 45.8191 40.3361C45.5319 40.2322 45.2547 40.1014 44.9909 39.9454C44.7772 39.8182 44.5731 39.6744 44.3807 39.5154C43.7445 38.9924 43.2427 38.318 42.9188 37.5509C42.8109 37.2963 42.7238 37.033 42.6584 36.7636C42.381 35.6249 42.4932 34.4231 42.9763 33.3591C43.142 33.3855 43.3095 33.3986 43.4773 33.3984C44.2752 33.3977 45.0458 33.1003 45.6461 32.5614C46.2464 32.0224 46.6356 31.2785 46.7416 30.4676C46.8587 30.4494 46.9772 30.4356 47.0964 30.4254C47.227 30.4152 47.3583 30.4102 47.491 30.4102C47.6074 30.4102 47.723 30.4145 47.8373 30.4225C48.7668 30.487 49.6597 30.8192 50.4133 31.3808C50.5169 31.4569 50.6174 31.5377 50.7149 31.6231C51.665 32.4473 52.2792 33.6067 52.4364 34.8725C52.4629 35.0878 52.4764 35.3046 52.4769 35.5216Z" fill="#E0B43D"/>
<path d="M52.4769 35.5216C52.4777 36.2859 52.311 37.0407 51.9891 37.7301C51.6671 38.4195 51.1982 39.0259 50.6169 39.5045C50.4906 39.5816 50.3622 39.6558 50.2337 39.7286C49.8334 39.954 49.422 40.158 49.0011 40.3398C48.911 40.3791 48.8194 40.4169 48.7279 40.454L48.5994 40.5057C48.4145 40.5489 48.2274 40.5809 48.0388 40.6017C47.8583 40.6216 47.6768 40.6315 47.4952 40.6315C47.2113 40.6321 46.9278 40.6078 46.6479 40.5588C46.3658 40.5099 46.0884 40.4354 45.8191 40.3361C45.5319 40.2322 45.2547 40.1014 44.9909 39.9454C44.7772 39.8182 44.5731 39.6744 44.3807 39.5154C43.7445 38.9924 43.2427 38.318 42.9188 37.5509C42.8109 37.2963 42.7238 37.033 42.6584 36.7636C42.381 35.6249 42.4932 34.4231 42.9763 33.3591C43.142 33.3855 43.3095 33.3986 43.4773 33.3984C44.2752 33.3977 45.0458 33.1003 45.6461 32.5614C46.2464 32.0224 46.6356 31.2785 46.7416 30.4676C46.8587 30.4494 46.9772 30.4356 47.0964 30.4254C47.227 30.4152 47.3583 30.4102 47.491 30.4102C47.6074 30.4102 47.723 30.4145 47.8373 30.4225C48.7668 30.487 49.6597 30.8192 50.4133 31.3808C50.5169 31.4569 50.6174 31.5377 50.7149 31.6231C51.665 32.4473 52.2792 33.6067 52.4364 34.8725C52.4629 35.0878 52.4764 35.3046 52.4769 35.5216Z" fill="#F5F5B8"/>
<path d="M52.4769 35.5216C52.4777 36.2859 52.311 37.0407 51.9891 37.7301C51.6671 38.4195 51.1982 39.0259 50.6169 39.5045C50.4906 39.5816 50.3622 39.6558 50.2337 39.7286C49.8334 39.954 49.422 40.158 49.0011 40.3398C48.911 40.3791 48.8194 40.4169 48.7279 40.454L48.5994 40.5057C48.4145 40.5489 48.2274 40.5809 48.0388 40.6017C47.8583 40.6216 47.6768 40.6315 47.4952 40.6315C47.2113 40.6321 46.9278 40.6078 46.6479 40.5588C46.3658 40.5099 46.0884 40.4354 45.8191 40.3361C45.5319 40.2322 45.2547 40.1014 44.9909 39.9454C44.7772 39.8182 44.5731 39.6744 44.3807 39.5154C43.7445 38.9924 43.2427 38.318 42.9188 37.5509C42.8109 37.2963 42.7238 37.033 42.6584 36.7636C42.381 35.6249 42.4932 34.4231 42.9763 33.3591C43.142 33.3855 43.3095 33.3986 43.4773 33.3984C44.2752 33.3977 45.0458 33.1003 45.6461 32.5614C46.2464 32.0224 46.6356 31.2785 46.7416 30.4676C46.8587 30.4494 46.9772 30.4356 47.0964 30.4254C47.227 30.4152 47.3583 30.4102 47.491 30.4102C47.6074 30.4102 47.723 30.4145 47.8373 30.4225C48.7668 30.487 49.6597 30.8192 50.4133 31.3808C50.5169 31.4569 50.6174 31.5377 50.7149 31.6231C51.665 32.4473 52.2792 33.6067 52.4364 34.8725C52.4629 35.0878 52.4764 35.3046 52.4769 35.5216Z" fill="#FFE49D"/>
<path d="M71.4827 23.4107C69.0028 25.871 65.6862 27.245 62.2354 27.2415C61.8608 27.2415 61.4899 27.2257 61.1227 27.1942C59.7269 27.0766 58.358 26.7328 57.0672 26.1755C56.7474 26.0373 56.4335 25.8867 56.1255 25.7237C55.9495 25.6306 55.7749 25.5331 55.6039 25.4327C54.8912 25.0122 54.2179 24.5251 53.5928 23.9775C53.5587 23.9476 53.5218 23.9178 53.4913 23.8872C53.2784 23.6971 53.0714 23.5001 52.8704 23.2964C50.7147 21.1162 49.3503 18.246 49.0036 15.1618C48.9676 14.8373 48.944 14.5096 48.9326 14.1788C48.9262 14.0435 48.9227 13.9081 48.9213 13.7721C48.9213 13.7612 48.9213 13.751 48.9213 13.7408C48.9213 13.6891 48.9213 13.6375 48.9213 13.5858C48.9213 13.4643 48.9213 13.3428 48.9262 13.222C48.9388 12.7107 48.9795 12.2006 49.0483 11.694C49.0852 11.419 49.1304 11.1464 49.1838 10.8762C49.3391 10.0844 49.5631 9.30834 49.853 8.55735C49.9476 8.30851 50.0505 8.06379 50.1617 7.8232C50.3998 7.2989 50.6708 6.79094 50.9728 6.3025C51.1289 6.04784 51.2933 5.79949 51.466 5.55744C52.5645 4.00738 53.9686 2.71155 55.5873 1.75411C57.206 0.796673 59.003 0.199031 60.8616 0C58.3596 2.46957 56.9015 5.84639 56.8003 9.40574C56.8003 9.49014 56.7961 9.57527 56.7954 9.6604C56.7954 9.71497 56.7954 9.77026 56.7954 9.82483C56.7935 11.6186 57.1367 13.3951 57.8052 15.0528C58.4738 16.7104 59.4546 18.2166 60.6915 19.4851C61.9284 20.7536 63.3972 21.7596 65.0138 22.4454C66.6303 23.1313 68.3629 23.4835 70.1124 23.482C70.57 23.4821 71.0274 23.4583 71.4827 23.4107Z" fill="#E0B43D"/>
<path d="M71.4827 23.4107C69.0028 25.871 65.6862 27.245 62.2354 27.2415C61.8608 27.2415 61.4899 27.2257 61.1227 27.1942C59.7269 27.0766 58.358 26.7328 57.0672 26.1755C56.7474 26.0373 56.4335 25.8867 56.1255 25.7237C55.9495 25.6306 55.7749 25.5331 55.6039 25.4327C54.8912 25.0122 54.2179 24.5251 53.5928 23.9775C53.5587 23.9476 53.5218 23.9178 53.4913 23.8872C53.2784 23.6971 53.0714 23.5001 52.8704 23.2964C50.7147 21.1162 49.3503 18.246 49.0036 15.1618C48.9676 14.8373 48.944 14.5096 48.9326 14.1788C48.9262 14.0435 48.9227 13.9081 48.9213 13.7721C48.9213 13.7612 48.9213 13.751 48.9213 13.7408C48.9213 13.6891 48.9213 13.6375 48.9213 13.5858C48.9213 13.4643 48.9213 13.3428 48.9262 13.222C48.9388 12.7107 48.9795 12.2006 49.0483 11.694C49.0852 11.419 49.1304 11.1464 49.1838 10.8762C49.3391 10.0844 49.5631 9.30834 49.853 8.55735C49.9476 8.30851 50.0505 8.06379 50.1617 7.8232C50.3998 7.2989 50.6708 6.79094 50.9728 6.3025C51.1289 6.04784 51.2933 5.79949 51.466 5.55744C52.5645 4.00738 53.9686 2.71155 55.5873 1.75411C57.206 0.796673 59.003 0.199031 60.8616 0C58.3596 2.46957 56.9015 5.84639 56.8003 9.40574C56.8003 9.49014 56.7961 9.57527 56.7954 9.6604C56.7954 9.71497 56.7954 9.77026 56.7954 9.82483C56.7935 11.6186 57.1367 13.3951 57.8052 15.0528C58.4738 16.7104 59.4546 18.2166 60.6915 19.4851C61.9284 20.7536 63.3972 21.7596 65.0138 22.4454C66.6303 23.1313 68.3629 23.4835 70.1124 23.482C70.57 23.4821 71.0274 23.4583 71.4827 23.4107Z" fill="#F5F5B8"/>
<path d="M71.4827 23.4107C69.0028 25.871 65.6862 27.245 62.2354 27.2415C61.8608 27.2415 61.4899 27.2257 61.1227 27.1942C59.7269 27.0766 58.358 26.7328 57.0672 26.1755C56.7474 26.0373 56.4335 25.8867 56.1255 25.7237C55.9495 25.6306 55.7749 25.5331 55.6039 25.4327C54.8912 25.0122 54.2179 24.5251 53.5928 23.9775C53.5587 23.9476 53.5218 23.9178 53.4913 23.8872C53.2784 23.6971 53.0714 23.5001 52.8704 23.2964C50.7147 21.1162 49.3503 18.246 49.0036 15.1618C48.9676 14.8373 48.944 14.5096 48.9326 14.1788C48.9262 14.0435 48.9227 13.9081 48.9213 13.7721C48.9213 13.7612 48.9213 13.751 48.9213 13.7408C48.9213 13.6891 48.9213 13.6375 48.9213 13.5858C48.9213 13.4643 48.9213 13.3428 48.9262 13.222C48.9388 12.7107 48.9795 12.2006 49.0483 11.694C49.0852 11.419 49.1304 11.1464 49.1838 10.8762C49.3391 10.0844 49.5631 9.30834 49.853 8.55735C49.9476 8.30851 50.0505 8.06379 50.1617 7.8232C50.3998 7.2989 50.6708 6.79094 50.9728 6.3025C51.1289 6.04784 51.2933 5.79949 51.466 5.55744C52.5645 4.00738 53.9686 2.71155 55.5873 1.75411C57.206 0.796673 59.003 0.199031 60.8616 0C58.3596 2.46957 56.9015 5.84639 56.8003 9.40574C56.8003 9.49014 56.7961 9.57527 56.7954 9.6604C56.7954 9.71497 56.7954 9.77026 56.7954 9.82483C56.7935 11.6186 57.1367 13.3951 57.8052 15.0528C58.4738 16.7104 59.4546 18.2166 60.6915 19.4851C61.9284 20.7536 63.3972 21.7596 65.0138 22.4454C66.6303 23.1313 68.3629 23.4835 70.1124 23.482C70.57 23.4821 71.0274 23.4583 71.4827 23.4107Z" fill="#FFE49D"/>
<path d="M23.2792 40.5789H23.2757C23.2774 40.5819 23.2795 40.5846 23.2821 40.5869C23.2802 40.5847 23.2792 40.5819 23.2792 40.5789ZM20.7366 39.392C20.6749 39.3636 20.6124 39.3345 20.5514 39.3047C20.6545 39.3716 20.7586 39.4371 20.8636 39.5012C20.8196 39.4655 20.7778 39.4291 20.7366 39.392Z" fill="#E0B43D"/>
<path d="M23.2792 40.5789H23.2757C23.2774 40.5819 23.2795 40.5846 23.2821 40.5869C23.2802 40.5847 23.2792 40.5819 23.2792 40.5789ZM20.7366 39.392C20.6749 39.3636 20.6124 39.3345 20.5514 39.3047C20.6545 39.3716 20.7586 39.4371 20.8636 39.5012C20.8196 39.4655 20.7778 39.4291 20.7366 39.392Z" fill="#F5F5B8"/>
<path d="M23.2792 40.5789H23.2757C23.2774 40.5819 23.2795 40.5846 23.2821 40.5869C23.2802 40.5847 23.2792 40.5819 23.2792 40.5789ZM20.7366 39.392C20.6749 39.3636 20.6124 39.3345 20.5514 39.3047C20.6545 39.3716 20.7586 39.4371 20.8636 39.5012C20.8196 39.4655 20.7778 39.4291 20.7366 39.392Z" fill="#FFE49D"/>
<path d="M28.9747 35.5218C28.9752 35.9408 28.9254 36.3581 28.8264 36.7646C28.761 37.034 28.6739 37.2973 28.566 37.5519C28.242 38.3192 27.7399 38.9936 27.1034 39.5164C26.6799 39.8647 26.2036 40.1395 25.6934 40.3299C25.4444 40.4239 25.1883 40.4969 24.9277 40.5481C24.3843 40.6544 23.8275 40.6676 23.2799 40.5874H23.2764C23.1458 40.5685 23.0169 40.5443 22.8896 40.5147L22.7661 40.4659C22.1079 40.1982 21.4717 39.8768 20.8636 39.5047C20.821 39.4698 20.7792 39.432 20.738 39.3963C20.1944 38.9169 19.7582 38.3227 19.4595 37.6543C19.1607 36.9859 19.0065 36.2592 19.0072 35.524C19.0071 35.3073 19.0204 35.0908 19.0469 34.8757C19.1947 33.6849 19.7476 32.5857 20.6081 31.7718C20.7544 31.6326 20.9089 31.5028 21.0708 31.3832C21.9193 30.7519 22.9412 30.4126 23.9896 30.4141C24.0705 30.4141 24.1514 30.4141 24.2315 30.4199C24.2798 30.4199 24.3273 30.4257 24.3735 30.4286C24.4955 30.4388 24.6176 30.4526 24.7375 30.4715C24.8434 31.2825 25.2326 32.0265 25.8329 32.5655C26.4332 33.1045 27.2039 33.4018 28.0018 33.4023C28.1698 33.4026 28.3375 33.3894 28.5035 33.363C28.5763 33.5219 28.6408 33.6846 28.6966 33.8505C28.8796 34.3878 28.9736 34.9527 28.9747 35.5218Z" fill="#E0B43D"/>
<path d="M28.9747 35.5218C28.9752 35.9408 28.9254 36.3581 28.8264 36.7646C28.761 37.034 28.6739 37.2973 28.566 37.5519C28.242 38.3192 27.7399 38.9936 27.1034 39.5164C26.6799 39.8647 26.2036 40.1395 25.6934 40.3299C25.4444 40.4239 25.1883 40.4969 24.9277 40.5481C24.3843 40.6544 23.8275 40.6676 23.2799 40.5874H23.2764C23.1458 40.5685 23.0169 40.5443 22.8896 40.5147L22.7661 40.4659C22.1079 40.1982 21.4717 39.8768 20.8636 39.5047C20.821 39.4698 20.7792 39.432 20.738 39.3963C20.1944 38.9169 19.7582 38.3227 19.4595 37.6543C19.1607 36.9859 19.0065 36.2592 19.0072 35.524C19.0071 35.3073 19.0204 35.0908 19.0469 34.8757C19.1947 33.6849 19.7476 32.5857 20.6081 31.7718C20.7544 31.6326 20.9089 31.5028 21.0708 31.3832C21.9193 30.7519 22.9412 30.4126 23.9896 30.4141C24.0705 30.4141 24.1514 30.4141 24.2315 30.4199C24.2798 30.4199 24.3273 30.4257 24.3735 30.4286C24.4955 30.4388 24.6176 30.4526 24.7375 30.4715C24.8434 31.2825 25.2326 32.0265 25.8329 32.5655C26.4332 33.1045 27.2039 33.4018 28.0018 33.4023C28.1698 33.4026 28.3375 33.3894 28.5035 33.363C28.5763 33.5219 28.6408 33.6846 28.6966 33.8505C28.8796 34.3878 28.9736 34.9527 28.9747 35.5218Z" fill="#F5F5B8"/>
<path d="M28.9747 35.5218C28.9752 35.9408 28.9254 36.3581 28.8264 36.7646C28.761 37.034 28.6739 37.2973 28.566 37.5519C28.242 38.3192 27.7399 38.9936 27.1034 39.5164C26.6799 39.8647 26.2036 40.1395 25.6934 40.3299C25.4444 40.4239 25.1883 40.4969 24.9277 40.5481C24.3843 40.6544 23.8275 40.6676 23.2799 40.5874H23.2764C23.1458 40.5685 23.0169 40.5443 22.8896 40.5147L22.7661 40.4659C22.1079 40.1982 21.4717 39.8768 20.8636 39.5047C20.821 39.4698 20.7792 39.432 20.738 39.3963C20.1944 38.9169 19.7582 38.3227 19.4595 37.6543C19.1607 36.9859 19.0065 36.2592 19.0072 35.524C19.0071 35.3073 19.0204 35.0908 19.0469 34.8757C19.1947 33.6849 19.7476 32.5857 20.6081 31.7718C20.7544 31.6326 20.9089 31.5028 21.0708 31.3832C21.9193 30.7519 22.9412 30.4126 23.9896 30.4141C24.0705 30.4141 24.1514 30.4141 24.2315 30.4199C24.2798 30.4199 24.3273 30.4257 24.3735 30.4286C24.4955 30.4388 24.6176 30.4526 24.7375 30.4715C24.8434 31.2825 25.2326 32.0265 25.8329 32.5655C26.4332 33.1045 27.2039 33.4018 28.0018 33.4023C28.1698 33.4026 28.3375 33.3894 28.5035 33.363C28.5763 33.5219 28.6408 33.6846 28.6966 33.8505C28.8796 34.3878 28.9736 34.9527 28.9747 35.5218Z" fill="#FFE49D"/>
<path d="M22.5699 13.5851C22.5699 13.6469 22.5699 13.7095 22.5699 13.7714C22.5699 13.7866 22.5699 13.8019 22.5699 13.8172C22.5699 13.938 22.565 14.058 22.5593 14.181C22.5461 14.5118 22.5212 14.8395 22.4848 15.164C22.3403 16.454 22.0162 17.7161 21.5225 18.9119C20.843 20.5544 19.8565 22.0446 18.6187 23.2986C18.4181 23.5023 18.2111 23.6993 17.9978 23.8894C17.9644 23.92 17.9268 23.9498 17.8963 23.9796C17.2711 24.5273 16.5979 25.0144 15.8852 25.4348C15.7433 25.5178 15.6013 25.5978 15.4594 25.6749C15.1216 25.8573 14.7753 26.0252 14.4205 26.1785C13.1185 26.7395 11.7374 27.0834 10.3294 27.1971C9.97416 27.2267 9.61508 27.2415 9.25222 27.2415C5.79972 27.2463 2.48112 25.8722 0 23.4106C0.454789 23.4588 0.91168 23.4831 1.36889 23.4834C2.50966 23.4843 3.64583 23.3351 4.74959 23.0396C7.59788 22.2723 10.1181 20.5592 11.9164 18.168C13.7147 15.7768 14.6898 12.8422 14.6894 9.82265C14.6894 9.76808 14.6894 9.71278 14.6894 9.65821C14.6894 9.53452 14.6852 9.41155 14.6809 9.28786C14.5492 5.77014 13.0939 2.44141 10.6204 0C12.4803 0.19719 14.279 0.793692 15.8992 1.75069C17.5195 2.70769 18.925 4.00375 20.0245 5.55453C20.1636 5.74855 20.2975 5.94768 20.4261 6.15189C20.7647 6.68506 21.0661 7.24209 21.3281 7.81883C21.4587 8.10599 21.5798 8.39897 21.6914 8.69777C21.9556 9.40374 22.1614 10.1312 22.3067 10.8726C22.3611 11.1505 22.4084 11.4316 22.4486 11.7159C22.515 12.2141 22.5543 12.7157 22.5664 13.2184C22.5664 13.3399 22.5699 13.4607 22.5699 13.5851Z" fill="#E0B43D"/>
<path d="M22.5699 13.5851C22.5699 13.6469 22.5699 13.7095 22.5699 13.7714C22.5699 13.7866 22.5699 13.8019 22.5699 13.8172C22.5699 13.938 22.565 14.058 22.5593 14.181C22.5461 14.5118 22.5212 14.8395 22.4848 15.164C22.3403 16.454 22.0162 17.7161 21.5225 18.9119C20.843 20.5544 19.8565 22.0446 18.6187 23.2986C18.4181 23.5023 18.2111 23.6993 17.9978 23.8894C17.9644 23.92 17.9268 23.9498 17.8963 23.9796C17.2711 24.5273 16.5979 25.0144 15.8852 25.4348C15.7433 25.5178 15.6013 25.5978 15.4594 25.6749C15.1216 25.8573 14.7753 26.0252 14.4205 26.1785C13.1185 26.7395 11.7374 27.0834 10.3294 27.1971C9.97416 27.2267 9.61508 27.2415 9.25222 27.2415C5.79972 27.2463 2.48112 25.8722 0 23.4106C0.454789 23.4588 0.91168 23.4831 1.36889 23.4834C2.50966 23.4843 3.64583 23.3351 4.74959 23.0396C7.59788 22.2723 10.1181 20.5592 11.9164 18.168C13.7147 15.7768 14.6898 12.8422 14.6894 9.82265C14.6894 9.76808 14.6894 9.71278 14.6894 9.65821C14.6894 9.53452 14.6852 9.41155 14.6809 9.28786C14.5492 5.77014 13.0939 2.44141 10.6204 0C12.4803 0.19719 14.279 0.793692 15.8992 1.75069C17.5195 2.70769 18.925 4.00375 20.0245 5.55453C20.1636 5.74855 20.2975 5.94768 20.4261 6.15189C20.7647 6.68506 21.0661 7.24209 21.3281 7.81883C21.4587 8.10599 21.5798 8.39897 21.6914 8.69777C21.9556 9.40374 22.1614 10.1312 22.3067 10.8726C22.3611 11.1505 22.4084 11.4316 22.4486 11.7159C22.515 12.2141 22.5543 12.7157 22.5664 13.2184C22.5664 13.3399 22.5699 13.4607 22.5699 13.5851Z" fill="#F5F5B8"/>
<path d="M22.5699 13.5851C22.5699 13.6469 22.5699 13.7095 22.5699 13.7714C22.5699 13.7866 22.5699 13.8019 22.5699 13.8172C22.5699 13.938 22.565 14.058 22.5593 14.181C22.5461 14.5118 22.5212 14.8395 22.4848 15.164C22.3403 16.454 22.0162 17.7161 21.5225 18.9119C20.843 20.5544 19.8565 22.0446 18.6187 23.2986C18.4181 23.5023 18.2111 23.6993 17.9978 23.8894C17.9644 23.92 17.9268 23.9498 17.8963 23.9796C17.2711 24.5273 16.5979 25.0144 15.8852 25.4348C15.7433 25.5178 15.6013 25.5978 15.4594 25.6749C15.1216 25.8573 14.7753 26.0252 14.4205 26.1785C13.1185 26.7395 11.7374 27.0834 10.3294 27.1971C9.97416 27.2267 9.61508 27.2415 9.25222 27.2415C5.79972 27.2463 2.48112 25.8722 0 23.4106C0.454789 23.4588 0.91168 23.4831 1.36889 23.4834C2.50966 23.4843 3.64583 23.3351 4.74959 23.0396C7.59788 22.2723 10.1181 20.5592 11.9164 18.168C13.7147 15.7768 14.6898 12.8422 14.6894 9.82265C14.6894 9.76808 14.6894 9.71278 14.6894 9.65821C14.6894 9.53452 14.6852 9.41155 14.6809 9.28786C14.5492 5.77014 13.0939 2.44141 10.6204 0C12.4803 0.19719 14.279 0.793692 15.8992 1.75069C17.5195 2.70769 18.925 4.00375 20.0245 5.55453C20.1636 5.74855 20.2975 5.94768 20.4261 6.15189C20.7647 6.68506 21.0661 7.24209 21.3281 7.81883C21.4587 8.10599 21.5798 8.39897 21.6914 8.69777C21.9556 9.40374 22.1614 10.1312 22.3067 10.8726C22.3611 11.1505 22.4084 11.4316 22.4486 11.7159C22.515 12.2141 22.5543 12.7157 22.5664 13.2184C22.5664 13.3399 22.5699 13.4607 22.5699 13.5851Z" fill="#FFE49D"/>
<path d="M20.7366 39.392C20.6749 39.3636 20.6124 39.3345 20.5514 39.3047C20.6545 39.3716 20.7586 39.4371 20.8636 39.5012C20.8196 39.4655 20.7778 39.4291 20.7366 39.392ZM23.2792 40.5789H23.2757C23.2774 40.5819 23.2795 40.5846 23.2821 40.5869C23.2802 40.5847 23.2792 40.5819 23.2792 40.5789Z" fill="#E0B43D"/>
<path d="M20.7366 39.392C20.6749 39.3636 20.6124 39.3345 20.5514 39.3047C20.6545 39.3716 20.7586 39.4371 20.8636 39.5012C20.8196 39.4655 20.7778 39.4291 20.7366 39.392ZM23.2792 40.5789H23.2757C23.2774 40.5819 23.2795 40.5846 23.2821 40.5869C23.2802 40.5847 23.2792 40.5819 23.2792 40.5789Z" fill="#F5F5B8"/>
<path d="M20.7366 39.392C20.6749 39.3636 20.6124 39.3345 20.5514 39.3047C20.6545 39.3716 20.7586 39.4371 20.8636 39.5012C20.8196 39.4655 20.7778 39.4291 20.7366 39.392ZM23.2792 40.5789H23.2757C23.2774 40.5819 23.2795 40.5846 23.2821 40.5869C23.2802 40.5847 23.2792 40.5819 23.2792 40.5789Z" fill="#FFE49D"/>
<path d="M30.4099 43.261C30.4099 43.3229 30.4049 43.3855 30.4049 43.4488C30.4048 43.6335 30.4195 43.818 30.4489 44.0003C29.3258 43.2923 28.3112 42.4177 27.4379 41.4049C27.5089 41.4049 27.5799 41.4049 27.6508 41.4049C28.2527 41.4051 28.854 41.3637 29.4505 41.2812C30.2137 41.176 30.9665 41.0022 31.7 40.7617C31.322 41.0574 31.0109 41.4335 30.7882 41.8642C30.5655 42.2949 30.4364 42.7699 30.4099 43.2567V43.261Z" fill="#E0B43D"/>
<path d="M30.4099 43.261C30.4099 43.3229 30.4049 43.3855 30.4049 43.4488C30.4048 43.6335 30.4195 43.818 30.4489 44.0003C29.3258 43.2923 28.3112 42.4177 27.4379 41.4049C27.5089 41.4049 27.5799 41.4049 27.6508 41.4049C28.2527 41.4051 28.854 41.3637 29.4505 41.2812C30.2137 41.176 30.9665 41.0022 31.7 40.7617C31.322 41.0574 31.0109 41.4335 30.7882 41.8642C30.5655 42.2949 30.4364 42.7699 30.4099 43.2567V43.261Z" fill="#F5F5B8"/>
<path d="M30.4099 43.261C30.4099 43.3229 30.4049 43.3855 30.4049 43.4488C30.4048 43.6335 30.4195 43.818 30.4489 44.0003C29.3258 43.2923 28.3112 42.4177 27.4379 41.4049C27.5089 41.4049 27.5799 41.4049 27.6508 41.4049C28.2527 41.4051 28.854 41.3637 29.4505 41.2812C30.2137 41.176 30.9665 41.0022 31.7 40.7617C31.322 41.0574 31.0109 41.4335 30.7882 41.8642C30.5655 42.2949 30.4364 42.7699 30.4099 43.2567V43.261Z" fill="#FFE49D"/>
<path d="M20.7366 39.3917C20.6749 39.3634 20.6124 39.3344 20.5514 39.3047C20.6545 39.3714 20.7586 39.4367 20.8636 39.5005C20.8196 39.465 20.7778 39.4287 20.7366 39.3917Z" fill="#E0B43D"/>
<path d="M20.7366 39.3917C20.6749 39.3634 20.6124 39.3344 20.5514 39.3047C20.6545 39.3714 20.7586 39.4367 20.8636 39.5005C20.8196 39.465 20.7778 39.4287 20.7366 39.3917Z" fill="#F5F5B8"/>
<path d="M20.7366 39.3917C20.6749 39.3634 20.6124 39.3344 20.5514 39.3047C20.6545 39.3714 20.7586 39.4367 20.8636 39.5005C20.8196 39.465 20.7778 39.4287 20.7366 39.3917Z" fill="#FFE49D"/>
<path d="M55.0922 35.0476C53.9639 36.8744 52.4306 38.4019 50.6172 39.5057C51.1985 39.0271 51.6675 38.4207 51.9894 37.7313C52.3113 37.0419 52.478 36.2871 52.4772 35.5228C52.4771 35.3063 52.4641 35.09 52.4382 34.8752C52.2809 33.6094 51.6667 32.4499 50.7166 31.6257C50.6196 31.5408 50.5191 31.4601 50.415 31.3834C49.6614 30.8218 48.7685 30.4897 47.839 30.4252C47.7248 30.4172 47.6091 30.4128 47.4927 30.4128C47.36 30.4128 47.2287 30.4179 47.0982 30.4281C46.9789 30.4383 46.8604 30.4521 46.7433 30.4703C46.8135 29.9326 46.7563 29.3855 46.5767 28.8753C46.3972 28.365 46.1004 27.9066 45.7115 27.5388C45.3856 27.2305 45.0023 26.9928 44.5847 26.84C44.167 26.6873 43.7236 26.6225 43.2809 26.6497C42.8383 26.6769 42.4055 26.7954 42.0086 26.9982C41.6117 27.201 41.2589 27.4838 40.9712 27.8298C40.8927 27.9237 40.8195 28.0221 40.7519 28.1245C40.6923 28.2137 40.6372 28.3059 40.5865 28.401C40.2624 29.0075 40.1275 29.7013 40.2002 30.3889C40.273 31.0764 40.5497 31.7245 40.9932 32.2456L41.0301 32.2886C41.2125 32.4955 41.4191 32.6785 41.6453 32.8335C41.9602 33.0505 42.3096 33.2093 42.6778 33.3028C42.7759 33.3284 42.8751 33.3488 42.9752 33.364C42.493 34.4282 42.3808 35.6297 42.6573 36.7684C42.7227 37.0378 42.8098 37.3011 42.9177 37.5557C43.2416 38.3229 43.7434 38.9973 44.3795 39.5202C44.5726 39.6781 44.7771 39.8206 44.9912 39.9466C45.254 40.1032 45.5303 40.2347 45.8166 40.3395C46.0859 40.4388 46.3632 40.5133 46.6454 40.5622C46.9253 40.6111 47.2088 40.6355 47.4927 40.6349C47.6743 40.6349 47.8557 40.625 48.0363 40.6051C48.2248 40.5843 48.412 40.5522 48.5969 40.509C48.3764 40.5954 48.1531 40.6759 47.927 40.7506C47.3083 40.9555 46.6757 41.1136 46.0344 41.2235C45.3251 41.3439 44.6075 41.4057 43.8885 41.4084H43.831C43.2293 41.4085 42.6283 41.3672 42.0321 41.2847C41.2691 41.1794 40.5166 41.0058 39.7832 40.7659C39.3683 40.6305 38.9627 40.4751 38.5662 40.2995C38.4129 40.2316 38.2613 40.161 38.1113 40.0878C38.007 40.0375 37.9041 39.9852 37.8012 39.932C37.0773 39.5536 36.3885 39.1084 35.7433 38.602C35.9122 38.4691 36.0778 38.3323 36.24 38.1916C36.5097 37.9588 36.7699 37.7163 37.0206 37.464C37.1767 37.3059 37.3288 37.1441 37.4769 36.9787C37.6997 36.7289 37.9126 36.4711 38.1156 36.2053C38.1532 36.1572 38.1866 36.1085 38.2263 36.0597C38.4411 35.7687 38.6455 35.4714 38.8394 35.1677C38.4832 35.3899 38.1161 35.5948 37.7381 35.7825C37.174 36.0635 36.5911 36.3027 35.9938 36.4985C35.91 36.5261 35.8249 36.5531 35.7397 36.5785L35.6936 36.5647C35.0144 36.3547 34.3528 36.089 33.7151 35.7702C33.3471 35.5863 32.9885 35.3855 32.6393 35.1677C32.8324 35.4738 33.0367 35.7711 33.2525 36.0597C33.283 36.1012 33.3149 36.1434 33.3468 36.1849C33.5559 36.458 33.775 36.7226 34.004 36.9787C34.1932 37.1883 34.3865 37.3915 34.5837 37.5884C34.7962 37.798 35.0147 38.0003 35.2394 38.1953C35.4022 38.3354 35.5678 38.4722 35.7362 38.6056C35.1065 39.0997 34.4351 39.5354 33.73 39.9073C33.6101 39.9706 33.4895 40.0325 33.3674 40.0914C33.2662 40.1399 33.164 40.1884 33.0609 40.2369C31.9119 40.7602 30.6962 41.113 29.4502 41.2847C28.8537 41.3672 28.2525 41.4085 27.6506 41.4084C27.5796 41.4084 27.5087 41.4084 27.4377 41.4084C26.9193 41.4006 26.4018 41.3617 25.8879 41.2919C25.0234 41.1743 24.1725 40.9694 23.3474 40.68L23.3005 40.6633C23.1586 40.6145 23.0238 40.5622 22.8875 40.509C23.0143 40.5391 23.1432 40.5634 23.2743 40.5818C23.276 40.5848 23.2781 40.5875 23.2807 40.5898C23.28 40.5874 23.28 40.5849 23.2807 40.5825C23.8283 40.6627 24.3851 40.6495 24.9284 40.5432C25.1891 40.492 25.4451 40.419 25.6941 40.325C26.2043 40.1346 26.6807 39.8598 27.1042 39.5115C27.7407 38.9887 28.2428 38.3143 28.5667 37.547C28.6747 37.2924 28.7618 37.0291 28.8272 36.7597C29.0612 35.7954 29.0175 34.7822 28.7016 33.8427C28.6458 33.6768 28.5813 33.5141 28.5085 33.3552C28.6088 33.3401 28.7083 33.3197 28.8066 33.2941C29.1746 33.2 29.5239 33.0412 29.8391 32.8248C30.0651 32.6693 30.2718 32.4861 30.4544 32.2791C30.4906 32.2376 30.5253 32.1954 30.5601 32.1525C30.9751 31.6316 31.229 30.9955 31.2892 30.3257C31.3493 29.6559 31.2131 28.9829 30.8979 28.393C30.8645 28.329 30.8269 28.2664 30.79 28.2053C30.7068 28.0711 30.6143 27.9432 30.5133 27.8225C30.1121 27.3403 29.5865 26.9837 28.9968 26.7937C28.5192 26.6396 28.0136 26.599 27.5185 26.6751C27.0233 26.7513 26.5516 26.9421 26.1391 27.2331C25.7267 27.5241 25.3843 27.9076 25.138 28.3545C24.8917 28.8015 24.7479 29.3001 24.7177 29.8125C24.7134 29.88 24.7113 29.9484 24.7113 30.0177C24.7113 30.1676 24.721 30.3174 24.7404 30.4659C24.6205 30.447 24.4984 30.4332 24.3763 30.423C24.3281 30.423 24.2805 30.4164 24.2344 30.4143C24.1542 30.4106 24.0733 30.4084 23.9924 30.4084C22.943 30.4066 21.9201 30.7462 21.0709 31.3783C20.9089 31.4979 20.7544 31.6277 20.6082 31.7669C19.7476 32.5808 19.1947 33.68 19.047 34.8708C19.0204 35.0859 19.0072 35.3024 19.0072 35.5191C19.0065 36.2543 19.1608 36.981 19.4595 37.6494C19.7583 38.3178 20.1944 38.912 20.738 39.3914C20.6763 39.3631 20.6139 39.334 20.5528 39.3041C18.8756 38.219 17.4547 36.7651 16.3929 35.0476C16.4859 33.9131 16.7174 32.795 17.082 31.7196C17.126 31.5923 17.1707 31.4649 17.2175 31.3398C17.6975 30.053 18.3648 28.8483 19.1967 27.7665C19.2173 27.7389 19.2386 27.7119 19.2599 27.685C20.3375 26.3034 21.6661 25.149 23.1721 24.2857C24.678 23.4212 26.3345 22.8675 28.048 22.6558C28.4992 22.5986 28.9531 22.5656 29.4077 22.5569C29.4921 22.5569 29.5766 22.5569 29.6617 22.5569C30.2634 22.5567 30.8644 22.5981 31.4606 22.6806C31.7104 22.715 31.9583 22.7567 32.2043 22.8057C32.4016 22.844 32.5972 22.8874 32.7912 22.936C32.8728 22.9563 32.9537 22.9767 33.0346 22.9985C33.4377 23.1062 33.8327 23.2326 34.2197 23.3776C34.434 23.4576 34.6452 23.5428 34.8534 23.633C35.1552 23.7649 35.4514 23.9071 35.7419 24.0594C36.0215 23.9139 36.3067 23.7766 36.5977 23.6475C36.8763 23.5253 37.1602 23.4128 37.4492 23.3099C37.7979 23.1858 38.1527 23.0764 38.5137 22.9818C38.6556 22.944 38.7999 22.9088 38.9466 22.8763C39.0573 22.8508 39.1687 22.8275 39.2801 22.8035C39.5256 22.755 39.7735 22.7133 40.0238 22.6784C40.6201 22.5959 41.2211 22.5546 41.8227 22.5547C41.9079 22.5547 41.9923 22.5547 42.0768 22.5547C42.477 22.562 42.8727 22.5874 43.264 22.6311C44.9398 22.8151 46.5659 23.3258 48.0547 24.1358C49.6669 25.0129 51.0867 26.2193 52.2267 27.6807C52.248 27.7076 52.2693 27.7345 52.2898 27.7621C53.1219 28.8441 53.7892 30.0491 54.269 31.3361C54.3163 31.4613 54.3615 31.5876 54.4046 31.7152C54.7691 32.7921 55.0001 33.9117 55.0922 35.0476Z" fill="#E0B43D"/>
<path d="M55.0922 35.0476C53.9639 36.8744 52.4306 38.4019 50.6172 39.5057C51.1985 39.0271 51.6675 38.4207 51.9894 37.7313C52.3113 37.0419 52.478 36.2871 52.4772 35.5228C52.4771 35.3063 52.4641 35.09 52.4382 34.8752C52.2809 33.6094 51.6667 32.4499 50.7166 31.6257C50.6196 31.5408 50.5191 31.4601 50.415 31.3834C49.6614 30.8218 48.7685 30.4897 47.839 30.4252C47.7248 30.4172 47.6091 30.4128 47.4927 30.4128C47.36 30.4128 47.2287 30.4179 47.0982 30.4281C46.9789 30.4383 46.8604 30.4521 46.7433 30.4703C46.8135 29.9326 46.7563 29.3855 46.5767 28.8753C46.3972 28.365 46.1004 27.9066 45.7115 27.5388C45.3856 27.2305 45.0023 26.9928 44.5847 26.84C44.167 26.6873 43.7236 26.6225 43.2809 26.6497C42.8383 26.6769 42.4055 26.7954 42.0086 26.9982C41.6117 27.201 41.2589 27.4838 40.9712 27.8298C40.8927 27.9237 40.8195 28.0221 40.7519 28.1245C40.6923 28.2137 40.6372 28.3059 40.5865 28.401C40.2624 29.0075 40.1275 29.7013 40.2002 30.3889C40.273 31.0764 40.5497 31.7245 40.9932 32.2456L41.0301 32.2886C41.2125 32.4955 41.4191 32.6785 41.6453 32.8335C41.9602 33.0505 42.3096 33.2093 42.6778 33.3028C42.7759 33.3284 42.8751 33.3488 42.9752 33.364C42.493 34.4282 42.3808 35.6297 42.6573 36.7684C42.7227 37.0378 42.8098 37.3011 42.9177 37.5557C43.2416 38.3229 43.7434 38.9973 44.3795 39.5202C44.5726 39.6781 44.7771 39.8206 44.9912 39.9466C45.254 40.1032 45.5303 40.2347 45.8166 40.3395C46.0859 40.4388 46.3632 40.5133 46.6454 40.5622C46.9253 40.6111 47.2088 40.6355 47.4927 40.6349C47.6743 40.6349 47.8557 40.625 48.0363 40.6051C48.2248 40.5843 48.412 40.5522 48.5969 40.509C48.3764 40.5954 48.1531 40.6759 47.927 40.7506C47.3083 40.9555 46.6757 41.1136 46.0344 41.2235C45.3251 41.3439 44.6075 41.4057 43.8885 41.4084H43.831C43.2293 41.4085 42.6283 41.3672 42.0321 41.2847C41.2691 41.1794 40.5166 41.0058 39.7832 40.7659C39.3683 40.6305 38.9627 40.4751 38.5662 40.2995C38.4129 40.2316 38.2613 40.161 38.1113 40.0878C38.007 40.0375 37.9041 39.9852 37.8012 39.932C37.0773 39.5536 36.3885 39.1084 35.7433 38.602C35.9122 38.4691 36.0778 38.3323 36.24 38.1916C36.5097 37.9588 36.7699 37.7163 37.0206 37.464C37.1767 37.3059 37.3288 37.1441 37.4769 36.9787C37.6997 36.7289 37.9126 36.4711 38.1156 36.2053C38.1532 36.1572 38.1866 36.1085 38.2263 36.0597C38.4411 35.7687 38.6455 35.4714 38.8394 35.1677C38.4832 35.3899 38.1161 35.5948 37.7381 35.7825C37.174 36.0635 36.5911 36.3027 35.9938 36.4985C35.91 36.5261 35.8249 36.5531 35.7397 36.5785L35.6936 36.5647C35.0144 36.3547 34.3528 36.089 33.7151 35.7702C33.3471 35.5863 32.9885 35.3855 32.6393 35.1677C32.8324 35.4738 33.0367 35.7711 33.2525 36.0597C33.283 36.1012 33.3149 36.1434 33.3468 36.1849C33.5559 36.458 33.775 36.7226 34.004 36.9787C34.1932 37.1883 34.3865 37.3915 34.5837 37.5884C34.7962 37.798 35.0147 38.0003 35.2394 38.1953C35.4022 38.3354 35.5678 38.4722 35.7362 38.6056C35.1065 39.0997 34.4351 39.5354 33.73 39.9073C33.6101 39.9706 33.4895 40.0325 33.3674 40.0914C33.2662 40.1399 33.164 40.1884 33.0609 40.2369C31.9119 40.7602 30.6962 41.113 29.4502 41.2847C28.8537 41.3672 28.2525 41.4085 27.6506 41.4084C27.5796 41.4084 27.5087 41.4084 27.4377 41.4084C26.9193 41.4006 26.4018 41.3617 25.8879 41.2919C25.0234 41.1743 24.1725 40.9694 23.3474 40.68L23.3005 40.6633C23.1586 40.6145 23.0238 40.5622 22.8875 40.509C23.0143 40.5391 23.1432 40.5634 23.2743 40.5818C23.276 40.5848 23.2781 40.5875 23.2807 40.5898C23.28 40.5874 23.28 40.5849 23.2807 40.5825C23.8283 40.6627 24.3851 40.6495 24.9284 40.5432C25.1891 40.492 25.4451 40.419 25.6941 40.325C26.2043 40.1346 26.6807 39.8598 27.1042 39.5115C27.7407 38.9887 28.2428 38.3143 28.5667 37.547C28.6747 37.2924 28.7618 37.0291 28.8272 36.7597C29.0612 35.7954 29.0175 34.7822 28.7016 33.8427C28.6458 33.6768 28.5813 33.5141 28.5085 33.3552C28.6088 33.3401 28.7083 33.3197 28.8066 33.2941C29.1746 33.2 29.5239 33.0412 29.8391 32.8248C30.0651 32.6693 30.2718 32.4861 30.4544 32.2791C30.4906 32.2376 30.5253 32.1954 30.5601 32.1525C30.9751 31.6316 31.229 30.9955 31.2892 30.3257C31.3493 29.6559 31.2131 28.9829 30.8979 28.393C30.8645 28.329 30.8269 28.2664 30.79 28.2053C30.7068 28.0711 30.6143 27.9432 30.5133 27.8225C30.1121 27.3403 29.5865 26.9837 28.9968 26.7937C28.5192 26.6396 28.0136 26.599 27.5185 26.6751C27.0233 26.7513 26.5516 26.9421 26.1391 27.2331C25.7267 27.5241 25.3843 27.9076 25.138 28.3545C24.8917 28.8015 24.7479 29.3001 24.7177 29.8125C24.7134 29.88 24.7113 29.9484 24.7113 30.0177C24.7113 30.1676 24.721 30.3174 24.7404 30.4659C24.6205 30.447 24.4984 30.4332 24.3763 30.423C24.3281 30.423 24.2805 30.4164 24.2344 30.4143C24.1542 30.4106 24.0733 30.4084 23.9924 30.4084C22.943 30.4066 21.9201 30.7462 21.0709 31.3783C20.9089 31.4979 20.7544 31.6277 20.6082 31.7669C19.7476 32.5808 19.1947 33.68 19.047 34.8708C19.0204 35.0859 19.0072 35.3024 19.0072 35.5191C19.0065 36.2543 19.1608 36.981 19.4595 37.6494C19.7583 38.3178 20.1944 38.912 20.738 39.3914C20.6763 39.3631 20.6139 39.334 20.5528 39.3041C18.8756 38.219 17.4547 36.7651 16.3929 35.0476C16.4859 33.9131 16.7174 32.795 17.082 31.7196C17.126 31.5923 17.1707 31.4649 17.2175 31.3398C17.6975 30.053 18.3648 28.8483 19.1967 27.7665C19.2173 27.7389 19.2386 27.7119 19.2599 27.685C20.3375 26.3034 21.6661 25.149 23.1721 24.2857C24.678 23.4212 26.3345 22.8675 28.048 22.6558C28.4992 22.5986 28.9531 22.5656 29.4077 22.5569C29.4921 22.5569 29.5766 22.5569 29.6617 22.5569C30.2634 22.5567 30.8644 22.5981 31.4606 22.6806C31.7104 22.715 31.9583 22.7567 32.2043 22.8057C32.4016 22.844 32.5972 22.8874 32.7912 22.936C32.8728 22.9563 32.9537 22.9767 33.0346 22.9985C33.4377 23.1062 33.8327 23.2326 34.2197 23.3776C34.434 23.4576 34.6452 23.5428 34.8534 23.633C35.1552 23.7649 35.4514 23.9071 35.7419 24.0594C36.0215 23.9139 36.3067 23.7766 36.5977 23.6475C36.8763 23.5253 37.1602 23.4128 37.4492 23.3099C37.7979 23.1858 38.1527 23.0764 38.5137 22.9818C38.6556 22.944 38.7999 22.9088 38.9466 22.8763C39.0573 22.8508 39.1687 22.8275 39.2801 22.8035C39.5256 22.755 39.7735 22.7133 40.0238 22.6784C40.6201 22.5959 41.2211 22.5546 41.8227 22.5547C41.9079 22.5547 41.9923 22.5547 42.0768 22.5547C42.477 22.562 42.8727 22.5874 43.264 22.6311C44.9398 22.8151 46.5659 23.3258 48.0547 24.1358C49.6669 25.0129 51.0867 26.2193 52.2267 27.6807C52.248 27.7076 52.2693 27.7345 52.2898 27.7621C53.1219 28.8441 53.7892 30.0491 54.269 31.3361C54.3163 31.4613 54.3615 31.5876 54.4046 31.7152C54.7691 32.7921 55.0001 33.9117 55.0922 35.0476Z" fill="#F5F5B8"/>
<path d="M55.0922 35.0476C53.9639 36.8744 52.4306 38.4019 50.6172 39.5057C51.1985 39.0271 51.6675 38.4207 51.9894 37.7313C52.3113 37.0419 52.478 36.2871 52.4772 35.5228C52.4771 35.3063 52.4641 35.09 52.4382 34.8752C52.2809 33.6094 51.6667 32.4499 50.7166 31.6257C50.6196 31.5408 50.5191 31.4601 50.415 31.3834C49.6614 30.8218 48.7685 30.4897 47.839 30.4252C47.7248 30.4172 47.6091 30.4128 47.4927 30.4128C47.36 30.4128 47.2287 30.4179 47.0982 30.4281C46.9789 30.4383 46.8604 30.4521 46.7433 30.4703C46.8135 29.9326 46.7563 29.3855 46.5767 28.8753C46.3972 28.365 46.1004 27.9066 45.7115 27.5388C45.3856 27.2305 45.0023 26.9928 44.5847 26.84C44.167 26.6873 43.7236 26.6225 43.2809 26.6497C42.8383 26.6769 42.4055 26.7954 42.0086 26.9982C41.6117 27.201 41.2589 27.4838 40.9712 27.8298C40.8927 27.9237 40.8195 28.0221 40.7519 28.1245C40.6923 28.2137 40.6372 28.3059 40.5865 28.401C40.2624 29.0075 40.1275 29.7013 40.2002 30.3889C40.273 31.0764 40.5497 31.7245 40.9932 32.2456L41.0301 32.2886C41.2125 32.4955 41.4191 32.6785 41.6453 32.8335C41.9602 33.0505 42.3096 33.2093 42.6778 33.3028C42.7759 33.3284 42.8751 33.3488 42.9752 33.364C42.493 34.4282 42.3808 35.6297 42.6573 36.7684C42.7227 37.0378 42.8098 37.3011 42.9177 37.5557C43.2416 38.3229 43.7434 38.9973 44.3795 39.5202C44.5726 39.6781 44.7771 39.8206 44.9912 39.9466C45.254 40.1032 45.5303 40.2347 45.8166 40.3395C46.0859 40.4388 46.3632 40.5133 46.6454 40.5622C46.9253 40.6111 47.2088 40.6355 47.4927 40.6349C47.6743 40.6349 47.8557 40.625 48.0363 40.6051C48.2248 40.5843 48.412 40.5522 48.5969 40.509C48.3764 40.5954 48.1531 40.6759 47.927 40.7506C47.3083 40.9555 46.6757 41.1136 46.0344 41.2235C45.3251 41.3439 44.6075 41.4057 43.8885 41.4084H43.831C43.2293 41.4085 42.6283 41.3672 42.0321 41.2847C41.2691 41.1794 40.5166 41.0058 39.7832 40.7659C39.3683 40.6305 38.9627 40.4751 38.5662 40.2995C38.4129 40.2316 38.2613 40.161 38.1113 40.0878C38.007 40.0375 37.9041 39.9852 37.8012 39.932C37.0773 39.5536 36.3885 39.1084 35.7433 38.602C35.9122 38.4691 36.0778 38.3323 36.24 38.1916C36.5097 37.9588 36.7699 37.7163 37.0206 37.464C37.1767 37.3059 37.3288 37.1441 37.4769 36.9787C37.6997 36.7289 37.9126 36.4711 38.1156 36.2053C38.1532 36.1572 38.1866 36.1085 38.2263 36.0597C38.4411 35.7687 38.6455 35.4714 38.8394 35.1677C38.4832 35.3899 38.1161 35.5948 37.7381 35.7825C37.174 36.0635 36.5911 36.3027 35.9938 36.4985C35.91 36.5261 35.8249 36.5531 35.7397 36.5785L35.6936 36.5647C35.0144 36.3547 34.3528 36.089 33.7151 35.7702C33.3471 35.5863 32.9885 35.3855 32.6393 35.1677C32.8324 35.4738 33.0367 35.7711 33.2525 36.0597C33.283 36.1012 33.3149 36.1434 33.3468 36.1849C33.5559 36.458 33.775 36.7226 34.004 36.9787C34.1932 37.1883 34.3865 37.3915 34.5837 37.5884C34.7962 37.798 35.0147 38.0003 35.2394 38.1953C35.4022 38.3354 35.5678 38.4722 35.7362 38.6056C35.1065 39.0997 34.4351 39.5354 33.73 39.9073C33.6101 39.9706 33.4895 40.0325 33.3674 40.0914C33.2662 40.1399 33.164 40.1884 33.0609 40.2369C31.9119 40.7602 30.6962 41.113 29.4502 41.2847C28.8537 41.3672 28.2525 41.4085 27.6506 41.4084C27.5796 41.4084 27.5087 41.4084 27.4377 41.4084C26.9193 41.4006 26.4018 41.3617 25.8879 41.2919C25.0234 41.1743 24.1725 40.9694 23.3474 40.68L23.3005 40.6633C23.1586 40.6145 23.0238 40.5622 22.8875 40.509C23.0143 40.5391 23.1432 40.5634 23.2743 40.5818C23.276 40.5848 23.2781 40.5875 23.2807 40.5898C23.28 40.5874 23.28 40.5849 23.2807 40.5825C23.8283 40.6627 24.3851 40.6495 24.9284 40.5432C25.1891 40.492 25.4451 40.419 25.6941 40.325C26.2043 40.1346 26.6807 39.8598 27.1042 39.5115C27.7407 38.9887 28.2428 38.3143 28.5667 37.547C28.6747 37.2924 28.7618 37.0291 28.8272 36.7597C29.0612 35.7954 29.0175 34.7822 28.7016 33.8427C28.6458 33.6768 28.5813 33.5141 28.5085 33.3552C28.6088 33.3401 28.7083 33.3197 28.8066 33.2941C29.1746 33.2 29.5239 33.0412 29.8391 32.8248C30.0651 32.6693 30.2718 32.4861 30.4544 32.2791C30.4906 32.2376 30.5253 32.1954 30.5601 32.1525C30.9751 31.6316 31.229 30.9955 31.2892 30.3257C31.3493 29.6559 31.2131 28.9829 30.8979 28.393C30.8645 28.329 30.8269 28.2664 30.79 28.2053C30.7068 28.0711 30.6143 27.9432 30.5133 27.8225C30.1121 27.3403 29.5865 26.9837 28.9968 26.7937C28.5192 26.6396 28.0136 26.599 27.5185 26.6751C27.0233 26.7513 26.5516 26.9421 26.1391 27.2331C25.7267 27.5241 25.3843 27.9076 25.138 28.3545C24.8917 28.8015 24.7479 29.3001 24.7177 29.8125C24.7134 29.88 24.7113 29.9484 24.7113 30.0177C24.7113 30.1676 24.721 30.3174 24.7404 30.4659C24.6205 30.447 24.4984 30.4332 24.3763 30.423C24.3281 30.423 24.2805 30.4164 24.2344 30.4143C24.1542 30.4106 24.0733 30.4084 23.9924 30.4084C22.943 30.4066 21.9201 30.7462 21.0709 31.3783C20.9089 31.4979 20.7544 31.6277 20.6082 31.7669C19.7476 32.5808 19.1947 33.68 19.047 34.8708C19.0204 35.0859 19.0072 35.3024 19.0072 35.5191C19.0065 36.2543 19.1608 36.981 19.4595 37.6494C19.7583 38.3178 20.1944 38.912 20.738 39.3914C20.6763 39.3631 20.6139 39.334 20.5528 39.3041C18.8756 38.219 17.4547 36.7651 16.3929 35.0476C16.4859 33.9131 16.7174 32.795 17.082 31.7196C17.126 31.5923 17.1707 31.4649 17.2175 31.3398C17.6975 30.053 18.3648 28.8483 19.1967 27.7665C19.2173 27.7389 19.2386 27.7119 19.2599 27.685C20.3375 26.3034 21.6661 25.149 23.1721 24.2857C24.678 23.4212 26.3345 22.8675 28.048 22.6558C28.4992 22.5986 28.9531 22.5656 29.4077 22.5569C29.4921 22.5569 29.5766 22.5569 29.6617 22.5569C30.2634 22.5567 30.8644 22.5981 31.4606 22.6806C31.7104 22.715 31.9583 22.7567 32.2043 22.8057C32.4016 22.844 32.5972 22.8874 32.7912 22.936C32.8728 22.9563 32.9537 22.9767 33.0346 22.9985C33.4377 23.1062 33.8327 23.2326 34.2197 23.3776C34.434 23.4576 34.6452 23.5428 34.8534 23.633C35.1552 23.7649 35.4514 23.9071 35.7419 24.0594C36.0215 23.9139 36.3067 23.7766 36.5977 23.6475C36.8763 23.5253 37.1602 23.4128 37.4492 23.3099C37.7979 23.1858 38.1527 23.0764 38.5137 22.9818C38.6556 22.944 38.7999 22.9088 38.9466 22.8763C39.0573 22.8508 39.1687 22.8275 39.2801 22.8035C39.5256 22.755 39.7735 22.7133 40.0238 22.6784C40.6201 22.5959 41.2211 22.5546 41.8227 22.5547C41.9079 22.5547 41.9923 22.5547 42.0768 22.5547C42.477 22.562 42.8727 22.5874 43.264 22.6311C44.9398 22.8151 46.5659 23.3258 48.0547 24.1358C49.6669 25.0129 51.0867 26.2193 52.2267 27.6807C52.248 27.7076 52.2693 27.7345 52.2898 27.7621C53.1219 28.8441 53.7892 30.0491 54.269 31.3361C54.3163 31.4613 54.3615 31.5876 54.4046 31.7152C54.7691 32.7921 55.0001 33.9117 55.0922 35.0476Z" fill="#FFE49D"/>
</svg>
